<svg width="1000" height="248" viewBox="0 0 1000 248" fill="none" xmlns="http://www.w3.org/2000/svg">
<g clip-path="url(#clip0_1_69)">
<path fill-rule="evenodd" clip-rule="evenodd" d="M48.8033 140.978V164.407C20.7882 157.71 0 133.023 0 103.594C0 86.6263 7.16815 73.1651 18.1312 59.9598C27.222 49.0096 49.6694 20.0107 56.7353 4.00899C58.4507 0.124172 62.8245 0.274296 64.7106 2.36166C70.7442 9.03895 78.181 23.6223 80.6134 40.1644C81.109 43.5349 81.313 46.2868 81.475 48.473C81.8228 53.1643 81.9774 55.25 84.4059 55.25C88.2214 55.25 90.7175 49.4553 91.2661 43.4739C91.6177 39.6414 95.4136 38.3585 98.0314 39.6414C110.621 45.8109 123.468 75.1784 126.574 89.5898C127.548 94.1091 128.183 98.7794 128.183 103.594C128.183 132.957 107.488 157.6 79.5673 164.362V140.978H48.8033ZM64.0917 131.64C73.9372 131.64 81.9185 124.073 81.9185 114.739C81.9185 99.8515 70.959 89.2129 65.4983 85.9791C65.1294 85.7607 64.945 85.6515 64.4432 85.6651C64.0758 85.675 63.5336 85.9053 63.2713 86.1627C62.913 86.5143 62.818 86.9145 62.6281 87.7148C61.6601 91.7928 58.6129 94.7005 55.4061 97.7604C50.9869 101.977 46.2649 106.483 46.2649 114.739C46.2649 124.073 54.2462 131.64 64.0917 131.64Z" fill="#F25533"/>
<path d="M158.057 138.153C144.522 138.153 134.269 143.072 128.732 150.656V141.023H97.972V243.503H128.732V187.549C128.732 172.997 136.525 166.438 147.803 166.438C157.646 166.438 165.644 172.382 165.644 185.089V243.503H196.404V180.58C196.404 152.91 178.768 138.153 158.057 138.153Z" fill="white"/>
<path d="M262.641 246.373C282.738 246.373 300.168 235.919 308.987 219.933L282.123 204.561C278.842 211.734 271.254 216.038 262.231 216.038C248.902 216.038 239.059 206.406 239.059 192.263C239.059 178.12 248.902 168.488 262.231 168.488C271.254 168.488 278.637 172.791 282.123 179.965L308.987 164.388C300.168 148.606 282.533 138.153 262.641 138.153C231.472 138.153 208.299 161.724 208.299 192.263C208.299 222.802 231.472 246.373 262.641 246.373Z" fill="white"/>
<path d="M332.645 132.005C342.692 132.005 351.101 123.601 351.101 113.557C351.101 103.515 342.692 95.111 332.645 95.111C322.596 95.111 314.189 103.515 314.189 113.557C314.189 123.601 322.596 132.005 332.645 132.005ZM317.265 243.503H348.025V141.023H317.265V243.503Z" fill="white"/>
<path d="M440.871 100.031V150.656C434.104 142.868 424.056 138.153 410.316 138.153C383.453 138.153 361.306 161.724 361.306 192.263C361.306 222.802 383.453 246.373 410.316 246.373C424.056 246.373 434.104 241.659 440.871 233.87V243.504H471.631V100.031H440.871ZM416.469 217.269C402.319 217.269 392.066 207.635 392.066 192.263C392.066 176.891 402.319 167.258 416.469 167.258C430.618 167.258 440.871 176.891 440.871 192.263C440.871 207.635 430.618 217.269 416.469 217.269Z" fill="white"/>
<path d="M517.576 204.561H590.375C591.195 200.666 591.605 196.568 591.605 192.263C591.605 161.314 569.458 138.153 539.519 138.153C507.118 138.153 484.971 161.724 484.971 192.263C484.971 222.802 506.707 246.373 541.774 246.373C561.256 246.373 576.43 239.199 586.479 225.262L561.87 211.119C557.769 215.628 550.592 218.908 542.184 218.908C530.906 218.908 521.473 215.218 517.576 204.561ZM516.961 181.605C519.832 171.152 527.624 165.413 539.313 165.413C548.541 165.413 557.769 169.717 561.05 181.605H516.961Z" fill="white"/>
<path d="M665.034 138.153C651.5 138.153 641.247 143.072 635.71 150.656V141.023H604.95V243.503H635.71V187.549C635.71 172.997 643.503 166.438 654.781 166.438C664.624 166.438 672.622 172.382 672.622 185.089V243.503H703.382V180.58C703.382 152.91 685.746 138.153 665.034 138.153Z" fill="white"/>
<path d="M780.49 170.537V141.023H759.367V112.328L728.608 121.552V141.023H712.201V170.537H728.608V206.815C728.608 235.51 740.297 247.602 780.49 243.503V215.628C766.955 216.448 759.367 215.628 759.367 206.815V170.537H780.49Z" fill="white"/>
<path d="M813.237 246.373C823.9 246.373 832.717 237.56 832.717 226.901C832.717 216.244 823.9 207.43 813.237 207.43C802.573 207.43 793.755 216.244 793.755 226.901C793.755 237.56 802.573 246.373 813.237 246.373Z" fill="white"/>
<path d="M862.014 132.005C872.061 132.005 880.469 123.601 880.469 113.557C880.469 103.515 872.061 95.111 862.014 95.111C851.965 95.111 843.558 103.515 843.558 113.557C843.558 123.601 851.965 132.005 862.014 132.005ZM846.633 243.503H877.394V141.023H846.633V243.503Z" fill="white"/>
<path d="M945.017 246.373C975.161 246.373 999.36 222.802 999.36 192.263C999.36 161.724 975.161 138.153 945.017 138.153C914.872 138.153 890.675 161.724 890.675 192.263C890.675 222.802 914.872 246.373 945.017 246.373ZM945.017 216.448C931.688 216.448 921.435 206.815 921.435 192.263C921.435 177.71 931.688 168.078 945.017 168.078C958.347 168.078 968.6 177.71 968.6 192.263C968.6 206.815 958.347 216.448 945.017 216.448Z" fill="white"/>
<path d="M48.8044 243.508H79.5643V164.807C79.5643 164.807 48.8044 170.332 48.8044 199.802V243.508Z" fill="white"/>
</g>
<defs>
<clipPath id="clip0_1_69">
<rect width="1000" height="246.18" fill="white" transform="translate(0 0.910034)"/>
</clipPath>
</defs>
</svg>
