<svg width="224" height="224" viewBox="0 0 224 224" fill="none" xmlns="http://www.w3.org/2000/svg">
<path fill-rule="evenodd" clip-rule="evenodd" d="M96.3415 173.353V198C66.8694 190.955 45 164.984 45 134.024C45 116.174 52.541 102.013 64.0742 88.1208C73.6378 76.6012 97.2526 46.0941 104.686 29.2601C106.491 25.1733 111.092 25.3312 113.076 27.5271C119.424 34.5517 127.247 49.8935 129.806 67.2959C130.327 70.8416 130.542 73.7366 130.712 76.0364L130.712 76.0366C131.078 80.972 131.241 83.1661 133.796 83.1661C137.81 83.1661 140.436 77.07 141.013 70.7775C141.383 66.7457 145.376 65.3962 148.13 66.7457C161.374 73.2361 174.889 104.131 178.157 119.292C179.181 124.046 179.85 128.959 179.85 134.024C179.85 164.915 158.078 190.839 128.706 197.953V173.353H96.3415ZM112.425 163.529C122.783 163.529 131.179 155.569 131.179 145.749C131.179 130.087 119.65 118.895 113.905 115.493C113.517 115.264 113.323 115.149 112.795 115.163C112.408 115.173 111.838 115.416 111.562 115.686C111.185 116.056 111.085 116.477 110.885 117.319C109.867 121.609 106.661 124.668 103.288 127.887C98.6387 132.323 93.6711 137.064 93.6711 145.749C93.6711 155.569 102.068 163.529 112.425 163.529Z" fill="#F25533"/>
</svg>
