<svg viewBox="0 0 20 20" fill="none" xmlns="http://www.w3.org/2000/svg">
<path d="M15.2502 5.5H8.25015C6.73315 5.5 5.50015 6.733 5.50015 8.25V15.25C5.50015 16.767 6.73315 18 8.25015 18H15.2502C16.7672 18 18.0002 16.767 18.0002 15.25V8.25C18.0002 6.733 16.7672 5.5 15.2502 5.5ZM14.8522 9.952L11.4552 14.452C11.3272 14.621 11.1332 14.728 10.9212 14.747C10.9002 14.749 10.8782 14.75 10.8562 14.75C10.6672 14.75 10.4842 14.679 10.3452 14.549L8.73615 13.049C8.43315 12.766 8.41615 12.292 8.69815 11.989C8.98115 11.686 9.45615 11.669 9.75815 11.951L10.7592 12.884L13.6552 9.048C13.9052 8.718 14.3742 8.653 14.7062 8.902C15.0372 9.152 15.1022 9.622 14.8522 9.953V9.952Z" fill="#5f5f68"/>
<path d="M3.80015 13.748C3.43515 13.748 3.11415 13.48 3.05915 13.108L2.03015 6.184C1.80715 4.684 2.84515 3.283 4.34515 3.059L11.2692 2.03C12.5382 1.844 13.7472 2.537 14.2232 3.719C14.3782 4.103 14.1922 4.54 13.8082 4.695C13.4202 4.85 12.9862 4.664 12.8322 4.28C12.6152 3.743 12.0632 3.428 11.4892 3.513L4.56615 4.543C3.88415 4.645 3.41215 5.282 3.51315 5.963L4.54215 12.887C4.60315 13.297 4.32015 13.679 3.91115 13.739C3.87315 13.745 3.83615 13.747 3.80015 13.747V13.748Z" fill="#5f5f68"/>
</svg>
