<svg viewBox="0 0 20 20" fill="none" xmlns="http://www.w3.org/2000/svg">
  <g clip-path="url(#clip0_1195_910)">
    <path
      d="M15.6279 12.2296C15.749 11.9236 16.2509 11.9236 16.3721 12.2296L17.3281 14.6563L19.7471 15.6153C19.9001 15.6758 20 15.8241 20 15.9883C19.9999 16.1524 19.8994 16.3009 19.7471 16.3614L17.3281 17.3204L16.3721 19.7462C16.3118 19.8992 16.1637 20.0001 16 20.0001C15.8363 20.0001 15.6882 19.8992 15.6279 19.7462L14.6719 17.3204L12.2529 16.3614C12.1001 16.3009 12.0001 16.1524 12 15.9883C12 15.8242 12.1006 15.6759 12.2529 15.6153L14.6719 14.6563L15.6279 12.2296Z"
      fill="#5f5f68" />
    <path fill-rule="evenodd" clip-rule="evenodd"
      d="M13.6426 4.00006C14.9426 4.00011 15.9996 5.05662 16 6.35651V11.0001C15.462 11.0004 14.7031 11.2748 14.3857 12.0762V12.0782L13.7354 13.7247L12.0967 14.3731C11.4767 14.619 11.0552 15.1982 11.0049 15.8565L11 15.9893V16.0001H6.35645C5.05648 15.9997 4 14.9427 4 13.6426V6.35651C4.00044 5.05683 5.05675 4.00044 6.35645 4.00006H13.6426ZM13.3086 7.2442C13.1093 6.97598 12.7306 6.92099 12.4629 7.1192C11.0722 8.15255 9.86568 9.50865 8.86621 11.1583C8.48477 10.5583 8.06752 10.0319 7.60547 9.56744C7.36908 9.32984 6.98446 9.32908 6.74902 9.56451C6.51204 9.79995 6.5119 10.1846 6.74707 10.421C7.34951 11.0267 7.86828 11.7594 8.33203 12.6602C8.43603 12.8617 8.64686 12.9906 8.87012 12.9883C9.09519 12.9883 9.30219 12.8634 9.40625 12.6641C10.413 10.7452 11.6841 9.20567 13.1836 8.09088C13.4522 7.89165 13.5077 7.51201 13.3086 7.2442Z"
      fill="#5f5f68" />
    <path
      d="M1.81445 3.11529C1.87499 2.96228 2.12599 2.96228 2.18652 3.11529L2.66406 4.32819L3.87402 4.80768C3.95033 4.838 4 4.91222 4 4.9942C3.99994 5.07626 3.94927 5.15051 3.87305 5.18072L2.66406 5.66022L2.18555 6.87311C2.15541 6.94961 2.08187 7.00006 2 7.00006C1.91813 7.00006 1.84459 6.94961 1.81445 6.87311L1.33594 5.66022L0.126953 5.18072C0.0504663 5.15051 6.08772e-05 5.07626 0 4.9942C0 4.91208 0.0506865 4.83791 0.126953 4.80768L1.33594 4.32819L1.81445 3.11529Z"
      fill="#5f5f68" />
    <path
      d="M5.36035 0.0859975C5.40576 -0.0286887 5.59418 -0.028643 5.63965 0.0859975L5.99805 0.996154L6.90527 1.35553C6.96256 1.37815 6.99985 1.43374 7 1.49518C7 1.55674 6.96242 1.61311 6.90527 1.6358L5.99805 1.99518L5.63965 2.90533C5.61699 2.96259 5.56132 3.00006 5.5 3.00006C5.43868 3.00006 5.38301 2.96259 5.36035 2.90533L5.00195 1.99518L4.09473 1.6358C4.03738 1.61311 4 1.55674 4 1.49518C4.00015 1.4338 4.03774 1.3782 4.09473 1.35553L5.00195 0.996154L5.36035 0.0859975Z"
      fill="#5f5f68" />
  </g>
  <defs>
    <clipPath id="clip0_1195_910">
      <rect width="20" height="20" fill="white" />
    </clipPath>
  </defs>
</svg>
  
