<svg viewBox="0 0 20 20" fill="none" xmlns="http://www.w3.org/2000/svg">
<path fill-rule="evenodd" clip-rule="evenodd" d="M2.27588 4.93104C2.27588 3.46462 3.46464 2.27586 4.93105 2.27586H15.069C16.5354 2.27586 17.7242 3.46463 17.7242 4.93104V12.1724C17.7242 13.6389 16.5354 14.8276 15.069 14.8276H12.8631L10.545 17.4769C10.4075 17.634 10.2088 17.7241 10 17.7241C9.7912 17.7241 9.59255 17.634 9.45505 17.4769L7.13694 14.8276H4.93105C3.46465 14.8276 2.27588 13.6389 2.27588 12.1724V4.93104ZM9.25003 5.74998C9.25003 5.33598 9.58603 4.99998 10 4.99998C10.414 4.99998 10.75 5.33598 10.75 5.74998V9.24999C10.75 9.66399 10.414 9.99999 10 9.99999C9.58603 9.99999 9.25003 9.66399 9.25003 9.24999V5.74998ZM10 12.819C9.44803 12.819 9.00003 12.37 9.00003 11.819C9.00003 11.268 9.44803 10.819 10 10.819C10.552 10.819 11 11.268 11 11.819C11 12.37 10.552 12.819 10 12.819Z" fill="#5f5f68"/>
</svg>
