<svg viewBox="0 0 20 20" fill="none" xmlns="http://www.w3.org/2000/svg">
<path d="M10.75 3H10.25C9.2835 3 8.5 3.7835 8.5 4.75V15.25C8.5 16.2165 9.2835 17 10.25 17H10.75C11.7165 17 12.5 16.2165 12.5 15.25V4.75C12.5 3.7835 11.7165 3 10.75 3Z" fill="#5f5f68"/>
<path d="M5.25 8H4.75C3.7835 8 3 8.7835 3 9.75V15.25C3 16.2165 3.7835 17 4.75 17H5.25C6.2165 17 7 16.2165 7 15.25V9.75C7 8.7835 6.2165 8 5.25 8Z" fill="#5f5f68"/>
<path d="M16.25 12H15.75C14.7835 12 14 12.7835 14 13.75V15.25C14 16.2165 14.7835 17 15.75 17H16.25C17.2165 17 18 16.2165 18 15.25V13.75C18 12.7835 17.2165 12 16.25 12Z" fill="#5f5f68"/>
</svg>
