<svg viewBox="0 0 20 20" fill="none" xmlns="http://www.w3.org/2000/svg">
  <path
    d="M15.9938 8.61586C15.7758 8.21086 15.3538 7.95886 14.8938 7.95886H10.9248L11.6768 2.12886C11.7378 1.66486 11.4728 1.22686 11.0338 1.06386C10.5958 0.899856 10.1078 1.05986 9.8498 1.45086L4.2058 10.0219C3.9528 10.4059 3.9318 10.8969 4.1498 11.3019C4.3678 11.7069 4.7898 11.9589 5.2498 11.9589H9.2188L8.4668 17.7889C8.4058 18.2529 8.6708 18.6909 9.1098 18.8539C9.2248 18.8969 9.3438 18.9179 9.4618 18.9179C9.7898 18.9179 10.1038 18.7559 10.2938 18.4679L15.9388 9.89586C16.1918 9.51186 16.2128 9.02086 15.9948 8.61586H15.9938Z"
    fill="#5f5f68" />
</svg>
  
