<svg viewBox="0 0 20 20" fill="none" xmlns="http://www.w3.org/2000/svg">
<path d="M16.638 6.16837C16.638 6.16837 16.636 6.15737 16.633 6.15237C16.63 6.14637 16.623 6.14337 16.62 6.13737C16.384 5.73337 16.047 5.38837 15.631 5.14737L11.38 2.68237C10.528 2.18937 9.472 2.18937 8.62 2.68237L4.37 5.14737C3.954 5.38837 3.618 5.73337 3.381 6.13737C3.377 6.14337 3.371 6.14637 3.367 6.15237C3.364 6.15737 3.364 6.16337 3.362 6.16837C3.13 6.57637 3 7.04337 3 7.52637V12.4724C3 13.4494 3.525 14.3604 4.37 14.8514L8.62 17.3164C9.042 17.5604 9.514 17.6824 9.986 17.6844C9.991 17.6844 9.995 17.6874 10 17.6874C10.005 17.6874 10.009 17.6844 10.014 17.6844C10.486 17.6824 10.959 17.5604 11.38 17.3164L15.63 14.8514C16.475 14.3614 17 13.4494 17 12.4734V7.52637C17 7.04337 16.87 6.57637 16.638 6.16837ZM5.123 13.5544C4.739 13.3314 4.5 12.9164 4.5 12.4724V7.67637L9.25 10.4314V15.9464L5.123 13.5534V13.5544ZM14.877 13.5544L10.75 15.9484V10.4324L15.5 7.67737V12.4734C15.5 12.9174 15.261 13.3314 14.877 13.5544Z" fill="#5f5f68"/>
</svg>
