<svg viewBox="0 0 20 20" fill="none" xmlns="http://www.w3.org/2000/svg">
<path d="M13.6237 3.28516C12.2727 2.18716 10.5027 1.76616 8.76765 2.12716C6.54065 2.59216 4.76565 4.41317 4.35065 6.65816C3.90665 9.05717 4.96265 11.4082 6.99965 12.6502V15.2492C6.99965 16.7662 8.23365 17.9992 9.74965 17.9992H10.2497C11.7667 17.9992 12.9997 16.7662 12.9997 15.2492V12.6502C14.7077 11.6082 15.7497 9.77016 15.7497 7.74917C15.7497 6.01017 14.9747 4.38316 13.6247 3.28516H13.6237ZM9.74865 16.4992C9.14765 16.4992 8.66865 16.0652 8.54965 15.4992H11.4487C11.3297 16.0652 10.8497 16.4992 10.2497 16.4992H9.74865ZM11.4987 13.9992H8.49865V12.9992H11.4987V13.9992ZM12.5287 7.77917L10.7487 9.55917V10.7482C10.7487 11.1622 10.4127 11.4982 9.99865 11.4982C9.58465 11.4982 9.24865 11.1622 9.24865 10.7482V9.55917L7.46865 7.77917C7.17565 7.48617 7.17565 7.01117 7.46865 6.71816C7.76165 6.42516 8.23665 6.42516 8.52965 6.71816L9.99965 8.18817L11.4697 6.71816C11.7627 6.42516 12.2377 6.42516 12.5307 6.71816C12.8237 7.01117 12.8237 7.48617 12.5307 7.77917H12.5287Z" fill="#5f5f68"/>
</svg>
