<svg viewBox="0 0 20 20" fill="none" xmlns="http://www.w3.org/2000/svg">
<path d="M6.74988 4.5C6.33588 4.5 5.99988 4.164 5.99988 3.75V1.75C5.99988 1.336 6.33588 1 6.74988 1C7.16388 1 7.49988 1.336 7.49988 1.75V3.75C7.49988 4.164 7.16388 4.5 6.74988 4.5Z" fill="#5f5f68"/>
<path d="M13.2499 4.5C12.8359 4.5 12.4999 4.164 12.4999 3.75V1.75C12.4999 1.336 12.8359 1 13.2499 1C13.6639 1 13.9999 1.336 13.9999 1.75V3.75C13.9999 4.164 13.6639 4.5 13.2499 4.5Z" fill="#5f5f68"/>
<path d="M14.7499 3H5.24988C3.73288 3 2.49988 4.233 2.49988 5.75V14.25C2.49988 15.767 3.73288 17 5.24988 17H14.7499C16.2669 17 17.4999 15.767 17.4999 14.25V5.75C17.4999 4.233 16.2669 3 14.7499 3ZM14.7499 15.5H5.24988C4.56088 15.5 3.99988 14.939 3.99988 14.25V8H15.9999V14.25C15.9999 14.939 15.4389 15.5 14.7499 15.5Z" fill="#5f5f68"/>
</svg>
