<svg viewBox="0 0 20 20" fill="none" xmlns="http://www.w3.org/2000/svg">
<path d="M15 11.0002C17.2061 11.0002 19 12.7946 19 15.0002C18.9999 17.2058 17.206 19.0002 15 19.0002C12.794 19.0002 11.0001 17.2058 11 15.0002C11 12.7946 12.7939 11.0002 15 11.0002ZM17.252 13.1926C16.9434 12.9163 16.4707 12.9417 16.1924 13.2483L14.4717 15.1604L13.7803 14.47C13.4874 14.177 13.0127 14.1771 12.7197 14.47C12.4267 14.7629 12.4267 15.2375 12.7197 15.5305L13.9697 16.7805C14.1104 16.9216 14.3018 17.0002 14.5 17.0002C14.5068 17.0002 14.5127 16.9998 14.5195 16.9993C14.7256 16.9939 14.9199 16.9049 15.0576 16.7522L17.3076 14.2522C17.5849 13.9441 17.5595 13.4699 17.252 13.1926ZM2.69141 3.67114C3.12935 3.33729 3.68494 3.22929 4.21582 3.37622L9.25 4.76489H9.25098V16.8225L3.28613 15.176C2.52913 14.967 2.00098 14.2725 2.00098 13.4875V5.06274C2.00107 4.51186 2.25348 4.00508 2.69141 3.67114ZM15.7842 3.37622C16.3151 3.22929 16.8716 3.3383 17.3096 3.67114C17.7485 4.00508 17.9999 4.51186 18 5.06274V10.3928C17.1368 9.82904 16.1066 9.50024 15 9.50024C13.2892 9.50024 11.7592 10.2836 10.75 11.511V4.76489L15.7842 3.37622Z" fill="#5f5f68"/>
</svg>
