<svg viewBox="0 0 20 20" fill="none" xmlns="http://www.w3.org/2000/svg">
<path d="M15.25 3H4.75C3.233 3 2 4.233 2 5.75V14.25C2 15.767 3.233 17 4.75 17H15.25C16.767 17 18 15.767 18 14.25V5.75C18 4.233 16.767 3 15.25 3ZM7.75 5.5C8.164 5.5 8.5 5.836 8.5 6.25C8.5 6.664 8.164 7 7.75 7C7.336 7 7 6.664 7 6.25C7 5.836 7.336 5.5 7.75 5.5ZM4.5 6.25C4.5 5.836 4.836 5.5 5.25 5.5C5.664 5.5 6 5.836 6 6.25C6 6.664 5.664 7 5.25 7C4.836 7 4.5 6.664 4.5 6.25ZM14.921 7.085L12.671 11.585C12.548 11.83 12.302 11.988 12.029 11.999C11.752 12.011 11.498 11.87 11.357 11.635L10.516 10.233L9.152 12.621C9.028 12.837 8.807 12.977 8.559 12.996C8.312 13.014 8.07 12.911 7.915 12.717L7.475 12.167L6.315 13.492C6.167 13.661 5.959 13.748 5.75 13.748C5.575 13.748 5.399 13.687 5.257 13.562C4.945 13.289 4.913 12.815 5.186 12.504L6.936 10.504C7.082 10.337 7.292 10.254 7.517 10.248C7.739 10.253 7.947 10.356 8.086 10.529L8.397 10.918L9.849 8.376C9.981 8.145 10.226 8.001 10.493 7.998C10.738 7.998 11.007 8.134 11.144 8.362L11.941 9.69L13.58 6.412C13.766 6.042 14.216 5.892 14.586 6.077C14.957 6.263 15.107 6.713 14.921 7.083V7.085Z" fill="#5f5f68"/>
</svg>
