<svg viewBox="0 0 20 20" fill="none" xmlns="http://www.w3.org/2000/svg">
<path d="M13.75 3H13.475C13.352 2.154 12.63 1.5 11.75 1.5H8.25C7.371 1.5 6.648 2.154 6.525 3H6.25C4.733 3 3.5 4.233 3.5 5.75V15.25C3.5 16.767 4.733 18 6.25 18H13.75C15.267 18 16.5 16.767 16.5 15.25V5.75C16.5 4.233 15.267 3 13.75 3ZM8 3.25C8 3.112 8.112 3 8.25 3H11.75C11.888 3 12 3.112 12 3.25V4.25C12 4.388 11.888 4.5 11.75 4.5H8.25C8.112 4.5 8 4.388 8 4.25V3.25ZM12.75 13.5H7.25C6.836 13.5 6.5 13.164 6.5 12.75C6.5 12.336 6.836 12 7.25 12H12.75C13.164 12 13.5 12.336 13.5 12.75C13.5 13.164 13.164 13.5 12.75 13.5ZM12.75 10.5H7.25C6.836 10.5 6.5 10.164 6.5 9.75C6.5 9.336 6.836 9 7.25 9H12.75C13.164 9 13.5 9.336 13.5 9.75C13.5 10.164 13.164 10.5 12.75 10.5Z" fill="#5f5f68"/>
</svg>
