<svg viewBox="0 0 20 20" fill="none" xmlns="http://www.w3.org/2000/svg">
<path d="M17.7135 8.67096L15.7759 8.39434C15.6446 7.92108 15.4586 7.47116 15.222 7.0519L16.3951 5.48682C16.4937 5.35418 16.4811 5.16821 16.3638 5.05156L14.95 3.6378C14.8327 3.52048 14.6461 3.50849 14.5147 3.60647L12.9497 4.77961C12.5311 4.54231 12.0811 4.35701 11.6072 4.2257L11.3306 2.28802C11.3073 2.12338 11.1666 2.0014 11.0007 2.0014H9.00099C8.83502 2.0014 8.69438 2.12338 8.67105 2.28802L8.39443 4.2257C7.92118 4.35701 7.47125 4.54298 7.05199 4.77961L5.48691 3.60647C5.3556 3.50849 5.1683 3.52048 5.05165 3.6378L3.63789 5.05156C3.52058 5.16888 3.50791 5.35418 3.60656 5.48682L4.7797 7.0519C4.54241 7.47049 4.3571 7.92042 4.22579 8.39434L2.28811 8.67096C2.12348 8.69429 2.0015 8.83493 2.0015 9.0009V11.0006C2.0015 11.1665 2.12348 11.3072 2.28811 11.3305L4.22579 11.6071C4.3571 12.0804 4.54307 12.5303 4.7797 12.9496L3.60656 14.5146C3.50791 14.6473 3.52058 14.8333 3.63789 14.9499L5.05165 16.3637C5.11631 16.4283 5.20163 16.461 5.28761 16.461C5.3576 16.461 5.42826 16.439 5.48758 16.3943L7.05265 15.2212C7.47125 15.4585 7.92118 15.6438 8.3951 15.7751L8.67172 17.7128C8.69505 17.8774 8.83569 17.9994 9.00166 17.9994H11.0013C11.1673 17.9994 11.3079 17.8774 11.3313 17.7128L11.6079 15.7751C12.0811 15.6438 12.5311 15.4578 12.9503 15.2212L14.5154 16.3943C14.5747 16.4383 14.6447 16.461 14.7154 16.461C14.8014 16.461 14.8867 16.4277 14.9513 16.3637L16.3651 14.9499C16.4824 14.8326 16.4951 14.6473 16.3964 14.5146L15.2233 12.9496C15.4606 12.531 15.6459 12.0811 15.7772 11.6071L17.7149 11.3305C17.8795 11.3072 18.0015 11.1665 18.0015 11.0006V9.0009C18.0015 8.83493 17.8795 8.69429 17.7149 8.67096H17.7135ZM10.0015 12.667C8.52907 12.667 7.33527 11.4732 7.33527 10.0007C7.33527 8.52832 8.52907 7.33451 10.0015 7.33451C11.4739 7.33451 12.6677 8.52832 12.6677 10.0007C12.6677 11.4732 11.4739 12.667 10.0015 12.667Z" fill="#5f5f68"/>
</svg>
