<svg viewBox="0 0 20 20" fill="none" xmlns="http://www.w3.org/2000/svg">
<path d="M16.25 4.5H13V3.75C13 2.785 12.215 2 11.25 2H8.75C7.785 2 7 2.785 7 3.75V4.5H3.75C3.336 4.5 3 4.836 3 5.25C3 5.664 3.336 6 3.75 6H16.25C16.664 6 17 5.664 17 5.25C17 4.836 16.664 4.5 16.25 4.5ZM8.5 3.75C8.5 3.612 8.612 3.5 8.75 3.5H11.25C11.388 3.5 11.5 3.612 11.5 3.75V4.5H8.5V3.75Z" fill="#5f5f68"/>
<path d="M14.25 7H5.75C5.336 7 5 7.336 5 7.75V15.25C5 16.767 6.233 18 7.75 18H12.25C13.767 18 15 16.767 15 15.25V7.75C15 7.336 14.664 7 14.25 7ZM9 14.25C9 14.664 8.664 15 8.25 15C7.836 15 7.5 14.664 7.5 14.25V10.25C7.5 9.836 7.836 9.5 8.25 9.5C8.664 9.5 9 9.836 9 10.25V14.25ZM12.5 14.25C12.5 14.664 12.164 15 11.75 15C11.336 15 11 14.664 11 14.25V10.25C11 9.836 11.336 9.5 11.75 9.5C12.164 9.5 12.5 9.836 12.5 10.25V14.25Z" fill="#5f5f68"/>
</svg>
