<svg viewBox="0 0 20 20" fill="none" xmlns="http://www.w3.org/2000/svg">
<path d="M16.487 6.427L12.573 2.513C12.242 2.182 11.803 2 11.336 2H5.75C4.233 2 3 3.233 3 4.75V15.25C3 16.767 4.233 18 5.75 18H14.25C15.767 18 17 16.767 17 15.25V7.664C17 7.197 16.818 6.757 16.487 6.427ZM6.75 7H8.75C9.164 7 9.5 7.336 9.5 7.75C9.5 8.164 9.164 8.5 8.75 8.5H6.75C6.336 8.5 6 8.164 6 7.75C6 7.336 6.336 7 6.75 7ZM13.25 14.5H6.75C6.336 14.5 6 14.164 6 13.75C6 13.336 6.336 13 6.75 13H13.25C13.664 13 14 13.336 14 13.75C14 14.164 13.664 14.5 13.25 14.5ZM13.25 11.5H6.75C6.336 11.5 6 11.164 6 10.75C6 10.336 6.336 10 6.75 10H13.25C13.664 10 14 10.336 14 10.75C14 11.164 13.664 11.5 13.25 11.5ZM15.432 7.5H12.5C11.95 7.5 11.5 7.05 11.5 6.5V3.579L11.513 3.574L15.435 7.495L15.432 7.5Z" fill="#5f5f68"/>
</svg>
