<svg viewBox="0 0 20 20" fill="none" xmlns="http://www.w3.org/2000/svg">
<path d="M15.75 7H13.25C12.0074 7 11 8.00736 11 9.25V14.75C11 15.9926 12.0074 17 13.25 17H15.75C16.9926 17 18 15.9926 18 14.75V9.25C18 8.00736 16.9926 7 15.75 7Z" fill="#5f5f68"/>
<path d="M9 12.25H5.625C5.005 12.25 4.5 11.745 4.5 11.125V4.75C4.5 4.061 5.061 3.5 5.75 3.5H14.25C14.939 3.5 15.5 4.061 15.5 4.75V5C15.5 5.414 15.836 5.75 16.25 5.75C16.664 5.75 17 5.414 17 5V4.75C17 3.233 15.767 2 14.25 2H5.75C4.233 2 3 3.233 3 4.75V11.125C3 11.529 3.099 11.908 3.263 12.25H2.75C2.336 12.25 2 12.586 2 13C2 13.414 2.336 13.75 2.75 13.75H9C9.414 13.75 9.75 13.414 9.75 13C9.75 12.586 9.414 12.25 9 12.25Z" fill="#5f5f68"/>
</svg>
