<svg viewBox="0 0 20 20" fill="none" xmlns="http://www.w3.org/2000/svg">
<path d="M8.80273 7.94458C9.61916 7.52229 10.6226 7.86951 11.0029 8.7063L12.2324 11.4124C14.0268 10.945 16.8303 10.8477 17.8193 11.6038C18.4683 12.0988 18.8519 13.0821 18.9629 14.72C19.2445 18.874 17.807 19.0002 15.1719 19.0002H12.2324C10.2693 19.0002 8.98215 18.1084 7.4834 17.3411C6.78695 16.9844 6.40855 16.1706 6.67188 15.4338C6.9393 14.6858 7.76501 14.2988 8.51074 14.5725L10.4961 15.302L8.08105 10.0413C7.72317 9.26167 8.04082 8.3387 8.80273 7.94458ZM13.0693 2.00708C14.2153 1.95302 15.359 2.22137 16.3799 2.74146C16.5529 2.82958 16.8294 2.97067 17.0469 3.20239C17.339 3.51362 17.5 3.92547 17.5 4.35474V8.61646C17.5 9.03066 17.1642 9.36646 16.75 9.36646C16.3358 9.36646 16 9.03066 16 8.61646V4.35474C16 4.30132 15.9804 4.2579 15.9531 4.22876C15.932 4.20636 15.8898 4.17635 15.6572 4.05688C15.1681 3.80563 14.4686 3.54579 13.6074 3.50513C12.6077 3.45801 11.5996 3.72479 10.749 4.25024V5.50513C10.7489 5.91928 10.4132 6.25513 9.99902 6.25513C9.58489 6.25509 9.2491 5.91926 9.24902 5.50513V4.25024C8.40446 3.72871 7.40465 3.46223 6.41211 3.50513C5.5426 3.54271 4.83652 3.80399 4.34375 4.05688C4.11093 4.17637 4.06685 4.20751 4.04492 4.23071C4.01816 4.25916 4 4.30005 4 4.35181V12.3157C4 12.3797 4.03003 12.4327 4.0791 12.467C4.12659 12.5002 4.17643 12.5063 4.22656 12.4866C4.26219 12.4726 4.29622 12.4613 4.31152 12.4563H4.31348C4.32748 12.4517 4.33219 12.4497 4.33301 12.4495H4.33203C4.71947 12.3036 5.1517 12.4996 5.29785 12.887C5.44397 13.2745 5.24879 13.7075 4.86133 13.8538C4.84326 13.8605 4.82679 13.8662 4.81445 13.8704L4.78418 13.8801L4.77148 13.884C3.65791 14.3187 2.5 13.4697 2.5 12.3157V4.35181C2.5 3.92105 2.66222 3.51042 2.95508 3.20044C3.18855 2.95336 3.4897 2.80988 3.65918 2.7229C4.65748 2.21057 5.784 1.95857 6.90527 2.00708C8.30971 2.06787 9.38016 2.57496 9.99902 2.95044C10.6139 2.57717 11.6763 2.07291 13.0693 2.00708Z" fill="#5f5f68"/>
</svg>
