<svg viewBox="0 0 20 20" fill="none" xmlns="http://www.w3.org/2000/svg">
<path d="M15.1372 16H14.0002C13.7732 16 13.5592 15.897 13.4162 15.721C13.2742 15.545 13.2192 15.313 13.2672 15.092L14.3512 10.092C14.4542 9.67001 14.5002 9.33001 14.5002 9.00101C14.5002 6.52001 12.4812 4.50101 10.0002 4.50101C7.51919 4.50101 5.50019 6.52001 5.50019 9.00101C5.50019 9.33001 5.54619 9.67001 5.64519 10.072L6.73319 15.092C6.78119 15.314 6.72619 15.545 6.58419 15.721C6.44119 15.898 6.22719 16 6.00019 16H4.86319C3.57819 16 2.44819 15.088 2.17519 13.833L1.84119 12.288C1.57519 11.064 2.17119 9.81501 3.28919 9.25101L4.00119 8.89201C4.05919 5.63401 6.72819 3.00101 10.0002 3.00101C13.2722 3.00101 15.9412 5.63401 15.9992 8.89201L16.7112 9.25101C17.8302 9.81501 18.4252 11.064 18.1592 12.289L17.8252 13.833C17.5532 15.089 16.4222 16 15.1372 16Z" fill="#161618"/>
</svg>
