<svg viewBox="0 0 20 20" fill="none" xmlns="http://www.w3.org/2000/svg">
<path fill-rule="evenodd" clip-rule="evenodd" d="M16.2442 12.0482C16.2442 15.4319 13.4361 18.1749 9.9721 18.1749C6.50811 18.1749 3.7 15.4319 3.7 12.0482C3.7 10.3878 4.40148 9.07044 5.47434 7.77815C6.36398 6.70655 8.56072 3.86867 9.25219 2.30272C9.42007 1.92255 9.84809 1.93724 10.0327 2.14151C10.6231 2.79496 11.3509 4.22211 11.5889 5.84094C11.6374 6.17078 11.6574 6.44009 11.6733 6.65403C11.7073 7.11313 11.7224 7.31724 11.9601 7.31724C12.3335 7.31724 12.5777 6.75016 12.6314 6.16481C12.6658 5.78976 13.0373 5.66422 13.2935 5.78976C14.5255 6.39352 15.7827 9.26746 16.0867 10.6778C16.182 11.1201 16.2442 11.5771 16.2442 12.0482ZM9.97212 14.7929C10.9356 14.7929 11.7167 14.0524 11.7167 13.139C11.7167 11.6821 10.6442 10.641 10.1098 10.3245C10.0737 10.3031 10.0556 10.2924 10.0065 10.2938C9.97056 10.2947 9.9175 10.3173 9.89183 10.3425C9.85677 10.3769 9.84748 10.416 9.82889 10.4943C9.73416 10.8934 9.43595 11.178 9.12213 11.4774C8.68966 11.8901 8.22756 12.331 8.22756 13.139C8.22756 14.0524 9.00862 14.7929 9.97212 14.7929Z" fill="#5f5f68"/>
</svg>
