<svg viewBox="0 0 20 20" fill="none" xmlns="http://www.w3.org/2000/svg">
  <path
    d="M7.25 11.033H4.75C3.7835 11.033 3 11.8165 3 12.783V15.283C3 16.2495 3.7835 17.033 4.75 17.033H7.25C8.2165 17.033 9 16.2495 9 15.283V12.783C9 11.8165 8.2165 11.033 7.25 11.033Z"
    fill="#5f5f68" />
  <path
    d="M15.25 11.033H12.75C11.7835 11.033 11 11.8165 11 12.783V15.283C11 16.2495 11.7835 17.033 12.75 17.033H15.25C16.2165 17.033 17 16.2495 17 15.283V12.783C17 11.8165 16.2165 11.033 15.25 11.033Z"
    fill="#5f5f68" />
  <path
    d="M17.005 4.79598L15.236 3.02698C14.555 2.34698 13.445 2.34598 12.762 3.02698L10.993 4.79598C10.312 5.47798 10.312 6.58798 10.993 7.26998L12.762 9.03898C13.103 9.37898 13.551 9.54998 13.999 9.54998C14.447 9.54998 14.895 9.37998 15.236 9.03898L17.005 7.26998C17.686 6.58798 17.686 5.47798 17.005 4.79598Z"
    fill="#5f5f68" />
  <path
    d="M7.25 3.03298H4.75C3.7835 3.03298 3 3.81648 3 4.78298V7.28298C3 8.24948 3.7835 9.03298 4.75 9.03298H7.25C8.2165 9.03298 9 8.24948 9 7.28298V4.78298C9 3.81648 8.2165 3.03298 7.25 3.03298Z"
    fill="#5f5f68" />
</svg>
