<svg viewBox="0 0 20 20" fill="none" xmlns="http://www.w3.org/2000/svg">
<path d="M16.164 9.414C16.397 9.531 16.673 9.518 16.894 9.382C17.115 9.245 17.25 9.004 17.25 8.744V7C17.25 5.483 16.017 4.25 14.5 4.25H12.725C12.735 4.167 12.75 4.086 12.75 4C12.75 2.897 11.853 2 10.75 2C9.647 2 8.75 2.897 8.75 4C8.75 4.086 8.765 4.167 8.775 4.25H7C5.483 4.25 4.25 5.483 4.25 7V8.775C4.167 8.764 4.086 8.75 4 8.75C2.897 8.75 2 9.647 2 10.75C2 11.853 2.897 12.75 4 12.75C4.086 12.75 4.167 12.735 4.25 12.725V14.5C4.25 16.017 5.483 17.25 7 17.25H8.744C9.004 17.25 9.245 17.115 9.382 16.895C9.518 16.674 9.531 16.397 9.415 16.165C9.306 15.946 9.25 15.723 9.25 15.5C9.25 14.673 9.923 14 10.75 14C11.577 14 12.25 14.673 12.25 15.5C12.25 15.721 12.194 15.945 12.084 16.166C11.968 16.398 11.981 16.674 12.118 16.895C12.255 17.116 12.496 17.25 12.756 17.25H14.5C16.017 17.25 17.25 16.017 17.25 14.5V12.756C17.25 12.496 17.115 12.255 16.894 12.118C16.673 11.981 16.396 11.968 16.164 12.086C15.137 12.601 14 11.801 14 10.751C14 9.701 15.134 8.901 16.164 9.416V9.414Z" fill="#5f5f68"/>
</svg>
