<svg viewBox="0 0 20 20" fill="none" xmlns="http://www.w3.org/2000/svg">
<path d="M10 2C5.589 2 2 5.589 2 10C2 14.411 5.589 18 10 18C14.411 18 18 14.411 18 10C18 5.589 14.411 2 10 2ZM12.105 13.243C11.753 13.603 11.277 13.848 10.75 13.969V14.25C10.75 14.664 10.414 15 10 15C9.586 15 9.25 14.664 9.25 14.25V13.972C8.264 13.766 7.574 13.162 7.283 12.208C7.162 11.812 7.385 11.393 7.782 11.272C8.178 11.15 8.597 11.375 8.718 11.771C8.837 12.16 9.087 12.557 10.039 12.557C10.439 12.557 10.811 12.421 11.033 12.195C11.183 12.041 11.257 11.855 11.251 11.643C11.243 11.32 11.128 10.955 9.859 10.728C7.882 10.375 7.481 9.226 7.418 8.572C7.356 7.926 7.535 7.351 7.936 6.91C8.293 6.517 8.783 6.296 9.251 6.175V5.75C9.251 5.336 9.587 5 10.001 5C10.415 5 10.751 5.336 10.751 5.75V6.152C11.548 6.347 12.174 6.866 12.509 7.659C12.67 8.041 12.491 8.481 12.11 8.642C11.727 8.802 11.288 8.624 11.127 8.243C11.055 8.073 10.837 7.557 10.039 7.557C9.763 7.557 9.271 7.669 9.045 7.918C8.974 7.997 8.882 8.135 8.91 8.428C8.925 8.581 8.97 9.046 10.122 9.252C11.834 9.559 12.719 10.351 12.75 11.606C12.765 12.221 12.536 12.802 12.105 13.243Z" fill="#5f5f68"/>
</svg>
