<svg viewBox="0 0 20 20" fill="none" xmlns="http://www.w3.org/2000/svg">
<path d="M16.75 13.5C16.061 13.5 15.5 12.939 15.5 12.25V7.5C15.5 4.467 13.033 2 10 2C6.967 2 4.5 4.467 4.5 7.5V12.25C4.5 12.939 3.939 13.5 3.25 13.5C2.836 13.5 2.5 13.836 2.5 14.25C2.5 14.664 2.836 15 3.25 15H16.75C17.164 15 17.5 14.664 17.5 14.25C17.5 13.836 17.164 13.5 16.75 13.5Z" fill="#5f5f68"/>
<path d="M8.80099 16C8.64999 16 8.50799 16.068 8.41299 16.185C8.31799 16.302 8.28099 16.456 8.31199 16.603C8.48499 17.425 9.17999 18 10.001 18C10.822 18 11.517 17.425 11.69 16.603C11.721 16.456 11.684 16.302 11.589 16.185C11.494 16.068 11.352 16 11.201 16H8.80099Z" fill="#5f5f68"/>
</svg>
