<svg viewBox="0 0 20 20" fill="none" xmlns="http://www.w3.org/2000/svg">
<path d="M12.4141 3.74763L4.60506 11.5566C3.74206 12.4206 3.20406 14.9626 3.01206 16.0156C2.96806 16.2576 3.04606 16.5066 3.22006 16.6806C3.36206 16.8226 3.55306 16.9006 3.75006 16.9006C3.79406 16.9006 3.83906 16.8966 3.88406 16.8886C4.93706 16.6976 7.47906 16.1596 8.34306 15.2956L16.1521 7.48662C17.1821 6.45562 17.1821 4.77963 16.1521 3.74863C15.1541 2.75063 13.4121 2.75063 12.4141 3.74763ZM15.0911 6.42463L14.1511 7.36462L12.5341 5.74763L13.4741 4.80763C13.6901 4.59163 13.9771 4.47362 14.2831 4.47362C14.5891 4.47362 14.8751 4.59263 15.0911 4.80763C15.5361 5.25363 15.5361 5.97863 15.0911 6.42463Z" fill="#5f5f68"/>
</svg>
