<svg viewBox="0 0 20 20" fill="none" xmlns="http://www.w3.org/2000/svg">
<path d="M6.75 17.9861C6.671 17.9861 6.591 17.9741 6.513 17.9471C6.12 17.8161 5.908 17.3911 6.039 16.9981L7.039 13.9981C7.169 13.6051 7.595 13.3911 7.988 13.5241C8.381 13.6551 8.593 14.0801 8.462 14.4731L7.462 17.4731C7.358 17.7871 7.064 17.9861 6.75 17.9861Z" fill="#5f5f68"/>
<path d="M13.25 17.9861C12.936 17.9861 12.643 17.7871 12.539 17.4731L11.539 14.4731C11.408 14.0801 11.62 13.6551 12.013 13.5241C12.407 13.3931 12.831 13.6061 12.962 13.9981L13.962 16.9981C14.093 17.3911 13.881 17.8161 13.488 17.9471C13.409 17.9731 13.329 17.9861 13.251 17.9861H13.25Z" fill="#5f5f68"/>
<path d="M15.25 2.98621H10.75V2.48621C10.75 2.07221 10.414 1.73621 10 1.73621C9.586 1.73621 9.25 2.07221 9.25 2.48621V2.98621H4.75C3.233 2.98621 2 4.21921 2 5.73621V12.2362C2 13.7532 3.233 14.9862 4.75 14.9862H15.25C16.767 14.9862 18 13.7532 18 12.2362V5.73621C18 4.21921 16.767 2.98621 15.25 2.98621ZM12.163 9.56021L9.023 11.3922C8.916 11.4542 8.798 11.4862 8.68 11.4862C8.563 11.4862 8.447 11.4552 8.341 11.3942C8.128 11.2712 8 11.0512 8 10.8052V7.14221C8 6.89621 8.127 6.67521 8.341 6.55321C8.554 6.43021 8.809 6.43021 9.023 6.55321L12.163 8.38521C12.374 8.50821 12.5 8.72821 12.5 8.97221C12.5 9.21621 12.374 9.43621 12.163 9.55921V9.56021Z" fill="#5f5f68"/>
</svg>
