<svg viewBox="0 0 20 20" fill="none" xmlns="http://www.w3.org/2000/svg">
<path d="M14.1147 5.89532C14.5026 5.75038 14.9344 5.94998 15.0776 6.33868L16.7026 10.741C16.7756 10.939 16.7625 11.1585 16.6655 11.3455C16.5685 11.5322 16.3976 11.6705 16.1948 11.7254L11.6645 12.9471C11.5997 12.965 11.534 12.9725 11.4692 12.9725C11.1382 12.9725 10.8356 12.7518 10.7446 12.4168C10.6368 12.0169 10.874 11.6048 11.2739 11.4979L14.2798 10.6873C13.2826 10.0985 11.8225 9.49894 10.0014 9.49884C7.16444 9.49884 5.20461 10.9433 4.49461 11.5643C4.35278 11.689 4.17714 11.7497 4.00242 11.7498H3.99949C3.79065 11.7497 3.58292 11.6628 3.43504 11.494C3.16205 11.182 3.19433 10.7083 3.50632 10.4363C4.34433 9.70335 6.65382 7.999 9.99949 7.99884C11.8345 7.99884 13.3592 8.5139 14.4975 9.0965L13.6714 6.85822C13.5274 6.46932 13.7259 6.03844 14.1147 5.89532Z" fill="#5f5f68"/>
</svg>
