<svg viewBox="0 0 20 20" fill="none" xmlns="http://www.w3.org/2000/svg">
<path d="M17.7197 8.97L16.9847 9.705C16.8277 5.983 13.7598 3 9.99975 3C7.94375 3 5.99975 3.899 4.66575 5.466C4.39675 5.781 4.43575 6.255 4.75075 6.523C5.06675 6.792 5.54075 6.754 5.80875 6.438C6.85675 5.207 8.38475 4.5 9.99975 4.5C13.0317 4.5 15.4997 6.967 15.4997 10C15.4997 10.06 15.4897 10.118 15.4877 10.178L14.2797 8.97C13.9867 8.677 13.5117 8.677 13.2187 8.97C12.9257 9.263 12.9257 9.738 13.2187 10.031L15.4687 12.281C15.6147 12.427 15.8067 12.501 15.9987 12.501C16.1907 12.501 16.3827 12.428 16.5287 12.281L18.7787 10.031C19.0717 9.738 19.0717 9.263 18.7787 8.97C18.4858 8.677 18.0107 8.677 17.7178 8.97H17.7197Z" fill="#5f5f68"/>
<path d="M14.1908 13.562C13.1427 14.793 11.6147 15.5 9.99975 15.5C6.96775 15.5 4.49975 13.033 4.49975 10C4.49975 9.94 4.50975 9.882 4.51175 9.822L5.71975 11.03C5.86575 11.176 6.05775 11.25 6.24975 11.25C6.44175 11.25 6.63375 11.177 6.77975 11.03C7.07275 10.737 7.07275 10.262 6.77975 9.969L4.52975 7.719C4.23675 7.426 3.76175 7.426 3.46875 7.719L1.21975 9.97C0.92675 10.263 0.92675 10.738 1.21975 11.031C1.51275 11.324 1.98775 11.324 2.28075 11.031L3.01575 10.296C3.17275 14.018 6.24075 17.001 10.0008 17.001C12.0568 17.001 14.0008 16.102 15.3348 14.535C15.6038 14.22 15.5647 13.746 15.2498 13.478C14.9338 13.21 14.4618 13.249 14.1918 13.563L14.1908 13.562Z" fill="#5f5f68"/>
</svg>
