<svg viewBox="0 0 20 20" fill="none" xmlns="http://www.w3.org/2000/svg">
  <path
    d="M3.5202 12.7995C3.89024 12.6134 4.34092 12.7625 4.52704 13.1325C4.71294 13.5025 4.56398 13.9533 4.19403 14.1393C3.77807 14.3486 3.49979 14.7681 3.49969 15.2497V16.4997H4.74969C5.2312 16.4997 5.65177 16.2222 5.86102 15.8063C6.04721 15.4363 6.49787 15.2872 6.86786 15.4733C7.23763 15.6596 7.38677 16.1102 7.20087 16.4802C6.75232 17.3718 5.83158 17.9997 4.74969 17.9997H2.74969C2.33565 17.9995 1.99969 17.6638 1.99969 17.2497V15.2497C1.99979 14.1675 2.62857 13.248 3.5202 12.7995ZM9.05145 4.72723C12.8172 1.5958 16.9352 2.00127 17.2995 2.04462C17.6432 2.08554 17.9146 2.35623 17.9557 2.69989C17.9991 3.06362 18.404 7.18307 15.2722 10.9489L15.4567 11.9753C15.566 12.5847 15.6753 13.2484 15.5739 13.8688C15.4617 14.5554 15.1054 15.1362 14.4333 15.612L11.155 17.8679C10.8845 18.0538 10.5243 18.0425 10.2663 17.8395C10.0286 17.6525 9.92826 17.3428 10.0056 17.0554C10.0268 16.9763 10.0491 16.8972 10.071 16.819C10.1426 16.5633 10.2138 16.3095 10.2585 16.0436C10.3262 15.6411 10.3795 15.1291 10.3698 14.5388C9.81024 14.7667 9.35922 14.9014 9.0827 14.9772C8.82274 15.0486 8.54383 14.9755 8.35321 14.7849L5.21552 11.6472C5.0249 11.4566 4.9508 11.1776 5.02216 10.9177C5.09806 10.6412 5.23354 10.1905 5.46161 9.63055C4.87077 9.62083 4.35841 9.67413 3.95575 9.74188C3.63942 9.7951 3.31777 9.86138 3.01532 9.97137C2.70933 10.0871 2.36339 9.99122 2.16083 9.73407C1.95771 9.47596 1.94632 9.115 2.13251 8.84442L4.38739 5.56708C4.86315 4.89507 5.44412 4.53878 6.13055 4.42645C6.75088 4.32499 7.41475 4.4344 8.02411 4.54364L9.05145 4.72723ZM13.987 12.28C13.2544 12.9341 12.5159 13.4389 11.8347 13.8268C11.8904 14.4807 11.8765 15.0742 11.8298 15.5837L13.571 14.3854C13.9364 14.1255 14.0508 13.888 14.0934 13.6276C14.1458 13.3069 14.0978 12.9029 13.987 12.28ZM12.7448 5.75555C11.9168 5.75555 11.2448 6.42707 11.2448 7.25555C11.2448 8.08403 11.9168 8.75555 12.7448 8.75555C13.5727 8.75542 14.2448 8.08394 14.2448 7.25555C14.2448 6.42716 13.5727 5.75569 12.7448 5.75555ZM7.7204 6.01337C7.09746 5.90263 6.6935 5.85347 6.37274 5.90594C6.11224 5.94856 5.87499 6.06363 5.61493 6.42938L4.41669 8.17059C4.92618 8.12384 5.5196 8.10986 6.17352 8.16571C6.5614 7.48435 7.06629 6.74599 7.7204 6.01337Z"
    fill="#5f5f68" />
</svg>
