<svg viewBox="0 0 20 20" fill="none" xmlns="http://www.w3.org/2000/svg">
<path fill-rule="evenodd" clip-rule="evenodd" d="M9 4C6.65279 4 4.75 5.90279 4.75 8.25C4.75 10.5972 6.65279 12.5 9 12.5C10.1624 12.5 11.2157 12.0334 11.983 11.2772C11.99 11.2696 11.9973 11.2621 12.0047 11.2547C12.0121 11.2473 12.0196 11.24 12.0272 11.233C12.7834 10.4657 13.25 9.41235 13.25 8.25C13.25 5.90279 11.3472 4 9 4ZM13.5617 11.751C14.3069 10.7814 14.75 9.56745 14.75 8.25C14.75 5.07436 12.1756 2.5 9 2.5C5.82436 2.5 3.25 5.07436 3.25 8.25C3.25 11.4256 5.82436 14 9 14C10.3174 14 11.5314 13.5569 12.501 12.8117L15.9697 16.2803C16.2626 16.5732 16.7374 16.5732 17.0303 16.2803C17.3232 15.9874 17.3232 15.5126 17.0303 15.2197L13.5617 11.751Z" fill="#5f5f68"/>
</svg>
