<svg viewBox="0 0 20 20" fill="none" xmlns="http://www.w3.org/2000/svg">
<path d="M16.25 8.00043H4.75C4.336 8.00043 4 7.66443 4 7.25043C4 6.83643 4.336 6.50043 4.75 6.50043H16.25C16.664 6.50043 17 6.83643 17 7.25043C17 7.66443 16.664 8.00043 16.25 8.00043Z" fill="#5f5f68"/>
<path d="M15.25 13.5004H3.75C3.336 13.5004 3 13.1644 3 12.7504C3 12.3364 3.336 12.0004 3.75 12.0004H15.25C15.664 12.0004 16 12.3364 16 12.7504C16 13.1644 15.664 13.5004 15.25 13.5004Z" fill="#5f5f68"/>
<path d="M6.29 17.0004C6.244 17.0004 6.197 16.9964 6.15 16.9874C5.744 16.9104 5.475 16.5194 5.551 16.1124L7.896 3.61243C7.972 3.20543 8.363 2.93543 8.772 3.01343C9.178 3.09043 9.447 3.48143 9.371 3.88843L7.027 16.3884C6.96 16.7484 6.643 17.0004 6.29 17.0004Z" fill="#5f5f68"/>
<path d="M11.368 17.0004C11.322 17.0004 11.275 16.9964 11.228 16.9874C10.822 16.9104 10.553 16.5194 10.629 16.1124L12.974 3.61243C13.05 3.20543 13.44 2.93543 13.85 3.01343C14.256 3.09043 14.525 3.48143 14.449 3.88843L12.105 16.3884C12.038 16.7484 11.722 17.0004 11.369 17.0004H11.368Z" fill="#5f5f68"/>
</svg>
