<svg viewBox="0 0 20 20" fill="none" xmlns="http://www.w3.org/2000/svg">
<path d="M3.34283 5.94557L4.60565 6.36766L5.02659 7.63392C5.09458 7.83844 5.28655 7.9768 5.50152 7.9768C5.71649 7.9768 5.90746 7.83844 5.97645 7.63392L6.39739 6.36766L7.66021 5.94557C7.86418 5.8774 8.00216 5.68591 8.00216 5.47035C8.00216 5.2548 7.86418 5.06331 7.66021 4.99513L6.39739 4.57304L5.97645 3.30679C5.83947 2.89774 5.16457 2.89774 5.02759 3.30679L4.60665 4.57304L3.34383 4.99513C3.13986 5.06331 3.00188 5.2548 3.00188 5.47035C3.00188 5.68591 3.13886 5.8774 3.34283 5.94557Z" fill="#5f5f68"/>
<path d="M16.6569 14.0183L15.3941 13.5962L14.9732 12.33C14.8362 11.9209 14.1613 11.9209 14.0243 12.33L13.6034 13.5962L12.3405 14.0183C12.1366 14.0865 11.9986 14.278 11.9986 14.4936C11.9986 14.7091 12.1366 14.9006 12.3405 14.9688L13.6034 15.3909L14.0243 16.6571C14.0923 16.8616 14.2843 17 14.4992 17C14.7142 17 14.9052 16.8616 14.9742 16.6571L15.3951 15.3909L16.6579 14.9688C16.8619 14.9006 16.9999 14.7091 16.9999 14.4936C16.9999 14.278 16.8619 14.0865 16.6579 14.0183H16.6569Z" fill="#5f5f68"/>
<path d="M10.5248 12.2909L8.49909 11.4868L7.69721 9.4546C7.47024 8.88112 6.52937 8.88112 6.30241 9.4546L5.50052 11.4868L3.47481 12.2909C3.18885 12.4042 2.99988 12.6819 2.99988 12.9897C2.99988 13.2975 3.18785 13.5752 3.47481 13.6885L5.50052 14.4926L6.30241 16.5248C6.41539 16.8115 6.69235 17 6.99931 17C7.30626 17 7.58322 16.8115 7.69621 16.5248L8.49809 14.4926L10.5238 13.6885C10.8098 13.5752 10.9987 13.2975 10.9987 12.9897C10.9987 12.6819 10.8118 12.4042 10.5248 12.2909Z" fill="#5f5f68"/>
<path d="M16.5239 6.27542L14.4982 5.47135L13.6964 3.43913C13.4694 2.86565 12.5285 2.86565 12.3015 3.43913L11.4997 5.47135L9.47395 6.27542C9.18799 6.38871 8.99902 6.66643 8.99902 6.97422C8.99902 7.28201 9.18699 7.55973 9.47395 7.67302L11.4997 8.47708L12.3015 10.5093C12.4145 10.796 12.6915 10.9845 12.9984 10.9845C13.3054 10.9845 13.5824 10.796 13.6954 10.5093L14.4972 8.47708L16.5229 7.67302C16.8089 7.55973 16.9979 7.28201 16.9979 6.97422C16.9979 6.66643 16.8109 6.38871 16.5239 6.27542Z" fill="#5f5f68"/>
</svg>
