<svg viewBox="0 0 20 20" fill="none" xmlns="http://www.w3.org/2000/svg">
  <path
    d="M17.2501 7.25H12.2211L10.7151 2.522C10.6161 2.211 10.3271 2 10.0001 2C9.67312 2 9.38412 2.211 9.28512 2.522L7.77912 7.25H2.75012C2.42912 7.25 2.14312 7.455 2.04012 7.759C1.93612 8.063 2.03912 8.4 2.29312 8.595L6.30412 11.675L4.72712 16.518C4.62612 16.827 4.73612 17.165 4.99812 17.357C5.26012 17.548 5.61712 17.549 5.87912 17.357L9.99912 14.371L14.1191 17.357C14.2501 17.452 14.4051 17.5 14.5591 17.5C14.7131 17.5 14.8691 17.452 15.0001 17.356C15.2631 17.165 15.3731 16.826 15.2711 16.517L13.6941 11.674L17.7051 8.594C17.9601 8.399 18.0621 8.062 17.9581 7.758C17.8551 7.454 17.5691 7.249 17.2481 7.249L17.2501 7.25Z"
    fill="#5f5f68" />
</svg>
  
