<svg viewBox="0 0 20 20" fill="none" xmlns="http://www.w3.org/2000/svg">
  <g id="status-page">
    <path id="Vector" fill-rule="evenodd" clip-rule="evenodd"
      d="M2.5 7C2.5 5.89543 3.39543 5 4.5 5C5.60457 5 6.5 5.89543 6.5 7V13C6.5 14.1046 5.60457 15 4.5 15C3.39543 15 2.5 14.1046 2.5 13L2.5 7ZM8 7C8 5.89543 8.89543 5 10 5C11.1046 5 12 5.89543 12 7V13C12 14.1046 11.1046 15 10 15C8.89543 15 8 14.1046 8 13V7ZM15.5 5C14.3954 5 13.5 5.89543 13.5 7V13C13.5 14.1046 14.3954 15 15.5 15C16.6046 15 17.5 14.1046 17.5 13V7C17.5 5.89543 16.6046 5 15.5 5Z"
      fill="#5f5f68" />
  </g>
</svg>
