<svg viewBox="0 0 20 20" fill="none" xmlns="http://www.w3.org/2000/svg">
<path d="M10 10.7501C11.5188 10.7501 12.7501 9.5188 12.7501 7.99996C12.7501 6.48112 11.5188 5.24985 10 5.24985C8.48117 5.24985 7.2499 6.48112 7.2499 7.99996C7.2499 9.5188 8.48117 10.7501 10 10.7501Z" fill="#5f5f68"/>
<path d="M14.6402 15.4813C14.1682 13.3192 12.2161 11.7502 10 11.7502C7.78393 11.7502 5.83185 13.3192 5.35984 15.4813C5.17083 16.3453 5.70785 17.2304 6.58388 17.4944C7.69192 17.8294 8.84197 18.0004 10 18.0004C11.1581 18.0004 12.3081 17.8304 13.4161 17.4944C14.2922 17.2294 14.8292 16.3453 14.6402 15.4813Z" fill="#5f5f68"/>
<path d="M5.24984 6.49992C6.49252 6.49992 7.49992 5.49253 7.49992 4.24984C7.49992 3.00715 6.49252 1.99976 5.24984 1.99976C4.00715 1.99976 2.99975 3.00715 2.99975 4.24984C2.99975 5.49253 4.00715 6.49992 5.24984 6.49992Z" fill="#5f5f68"/>
<path d="M7.01789 11.0221C6.23586 10.2511 5.74984 9.18207 5.74984 8.00002C5.74984 7.83402 5.77984 7.67701 5.79884 7.516C5.66684 7.509 5.53684 7.501 5.39283 7.497L5.24982 7.494C3.26575 7.494 1.53769 8.83505 1.04967 10.7571C0.825659 11.6382 1.38068 12.5672 2.28571 12.8292C2.89874 13.0072 3.71977 13.2022 4.6798 13.2332C5.25482 12.3042 6.06586 11.5432 7.01789 11.0221Z" fill="#5f5f68"/>
<path d="M14.7502 6.49992C15.9929 6.49992 17.0003 5.49253 17.0003 4.24984C17.0003 3.00715 15.9929 1.99976 14.7502 1.99976C13.5075 1.99976 12.5001 3.00715 12.5001 4.24984C12.5001 5.49253 13.5075 6.49992 14.7502 6.49992Z" fill="#5f5f68"/>
<path d="M12.9821 11.0221C13.7641 10.2511 14.2502 9.18207 14.2502 8.00002C14.2502 7.83402 14.2202 7.67701 14.2012 7.516C14.3332 7.509 14.4632 7.501 14.6072 7.497L14.7502 7.494C16.7343 7.494 18.4623 8.83505 18.9503 10.7571C19.1743 11.6382 18.6193 12.5672 17.7143 12.8292C17.1013 13.0072 16.2802 13.2022 15.3202 13.2332C14.7452 12.3042 13.9341 11.5432 12.9821 11.0221Z" fill="#5f5f68"/>
</svg>
