<svg viewBox="0 0 20 20" fill="none" xmlns="http://www.w3.org/2000/svg">
<path d="M16.2507 11.0017C15.8368 11.0017 15.5007 11.3378 15.5007 11.7517V14.2517C15.5007 14.9408 14.9397 15.5017 14.2507 15.5017H3.75075C3.33675 15.5017 3.00075 15.8378 3.00075 16.2517C3.00075 16.6657 3.33675 17.0017 3.75075 17.0017H14.2507C15.7677 17.0017 17.0007 15.7688 17.0007 14.2517V11.7517C17.0007 11.3378 16.6647 11.0017 16.2507 11.0017Z" fill="#5f5f68"/>
<path d="M6.47075 10.7817C6.61675 10.9277 6.80875 11.0017 7.00075 11.0017C7.19275 11.0017 7.38475 10.9287 7.53075 10.7817C7.82375 10.4887 7.82375 10.0138 7.53075 9.72075L5.56075 7.75075H7.99975C9.92975 7.75075 11.4997 9.32075 11.4997 11.2507C11.4997 11.6647 11.8357 12.0007 12.2497 12.0007C12.6637 12.0007 12.9997 11.6647 12.9997 11.2507C12.9997 8.49375 10.7568 6.25075 7.99975 6.25075H5.56075L7.53075 4.28075C7.82375 3.98775 7.82375 3.51275 7.53075 3.21975C7.23775 2.92675 6.76275 2.92675 6.46975 3.21975L3.21975 6.46975C2.92675 6.76275 2.92675 7.23775 3.21975 7.53075L6.47075 10.7817Z" fill="#5f5f68"/>
</svg>
