<svg viewBox="0 0 20 20" fill="none" xmlns="http://www.w3.org/2000/svg">
<path d="M18.2465 12.048C17.3015 10.168 15.4075 9 13.3065 9C13.0235 9 12.7465 9.031 12.4705 9.063C12.0955 9.107 11.6945 9.208 11.2905 9.34C12.7395 10.07 13.9545 11.239 14.7205 12.754C15.1305 13.565 15.2005 14.494 14.9635 15.368C15.1715 15.346 15.3595 15.319 15.5075 15.285C16.1845 15.127 16.6955 14.996 17.1535 14.833C17.6815 14.645 18.1055 14.234 18.3165 13.708C18.5325 13.169 18.5065 12.564 18.2465 12.047V12.048Z" fill="#5f5f68"/>
<path d="M13.3815 13.432C12.3115 11.315 10.1745 10 7.8065 10C5.4385 10 3.3015 11.315 2.2315 13.432C1.9495 13.99 1.9235 14.646 2.1625 15.234C2.4085 15.841 2.9035 16.313 3.5205 16.526C4.9055 17.006 6.3465 17.25 7.8065 17.25C9.2665 17.25 10.7075 17.006 12.0925 16.526C12.7095 16.312 13.2045 15.841 13.4505 15.234C13.6885 14.647 13.6635 13.99 13.3815 13.432Z" fill="#5f5f68"/>
<path d="M13.3067 2C12.7317 2 12.1987 2.171 11.7417 2.452C12.3987 3.298 12.8067 4.348 12.8067 5.5C12.8067 6.33 12.5847 7.101 12.2247 7.79C12.5617 7.921 12.9237 8 13.3067 8C14.9607 8 16.3067 6.654 16.3067 5C16.3067 3.346 14.9607 2 13.3067 2Z" fill="#5f5f68"/>
<path d="M7.80664 9C9.73964 9 11.3066 7.433 11.3066 5.5C11.3066 3.567 9.73964 2 7.80664 2C5.87364 2 4.30664 3.567 4.30664 5.5C4.30664 7.433 5.87364 9 7.80664 9Z" fill="#5f5f68"/>
</svg>
