<svg viewBox="0 0 20 20" fill="none" xmlns="http://www.w3.org/2000/svg">
<path fill-rule="evenodd" clip-rule="evenodd" d="M6.75 2H13.25C14.767 2 16 3.233 16 4.75V15.25C16 16.767 14.767 18 13.25 18H6.75C5.233 18 4 16.767 4 15.25V4.75C4 3.233 5.233 2 6.75 2ZM9.99997 16.2222C10.6136 16.2222 11.1111 15.7248 11.1111 15.1111C11.1111 14.4975 10.6136 14 9.99997 14C9.38632 14 8.88885 14.4975 8.88885 15.1111C8.88885 15.7248 9.38632 16.2222 9.99997 16.2222ZM8.33331 4.83333C8.33331 4.3731 8.70641 4 9.16665 4H10.8333C11.2936 4 11.6666 4.3731 11.6666 4.83333C11.6666 5.29357 11.2936 5.66667 10.8333 5.66667H9.16665C8.70641 5.66667 8.33331 5.29357 8.33331 4.83333ZM1.5 8.75C1.5 8.33579 1.83579 8 2.25 8C2.66421 8 3 8.33579 3 8.75V12.25C3 12.6642 2.66421 13 2.25 13C1.83579 13 1.5 12.6642 1.5 12.25V8.75ZM17 8.75C17 8.33579 17.3358 8 17.75 8C18.1642 8 18.5 8.33579 18.5 8.75V12.25C18.5 12.6642 18.1642 13 17.75 13C17.3358 13 17 12.6642 17 12.25V8.75Z" fill="#5f5f68"/>
</svg>
