<svg viewBox="0 0 20 20" fill="none" xmlns="http://www.w3.org/2000/svg">
<path d="M12.5 9H11V7.25C11 6.836 10.664 6.5 10.25 6.5C9.836 6.5 9.5 6.836 9.5 7.25V9H8C6.483 9 5.25 10.233 5.25 11.75V12.75C5.25 13.164 5.586 13.5 6 13.5C6.414 13.5 6.75 13.164 6.75 12.75V11.75C6.75 11.061 7.311 10.5 8 10.5H12.5C13.189 10.5 13.75 11.061 13.75 11.75V12.75C13.75 13.164 14.086 13.5 14.5 13.5C14.914 13.5 15.25 13.164 15.25 12.75V11.75C15.25 10.233 14.017 9 12.5 9Z" fill="#5f5f68"/>
<path d="M6 18C7.65685 18 9 16.6569 9 15C9 13.3431 7.65685 12 6 12C4.34315 12 3 13.3431 3 15C3 16.6569 4.34315 18 6 18Z" fill="#5f5f68"/>
<path d="M14.5 18C16.1569 18 17.5 16.6569 17.5 15C17.5 13.3431 16.1569 12 14.5 12C12.8431 12 11.5 13.3431 11.5 15C11.5 16.6569 12.8431 18 14.5 18Z" fill="#5f5f68"/>
<path d="M11.5 2H9C8.0335 2 7.25 2.7835 7.25 3.75V6.25C7.25 7.2165 8.0335 8 9 8H11.5C12.4665 8 13.25 7.2165 13.25 6.25V3.75C13.25 2.7835 12.4665 2 11.5 2Z" fill="#5f5f68"/>
</svg>
