<svg width="20" height="20" viewBox="0 0 20 20" fill="none" xmlns="http://www.w3.org/2000/svg">
<path d="M13.4792 6.02954C13.4792 7.97804 11.9217 9.55914 10.0006 9.55914C8.07834 9.55914 6.5207 7.97928 6.5207 6.02954C6.5207 4.07986 8.07827 2.5 10.0006 2.5C11.9217 2.5 13.4792 4.07986 13.4792 6.02954ZM5.47987 10.4409C3.55878 10.4409 2 12.0207 2 13.9692C2 15.9177 3.55757 17.4988 5.47987 17.4988C7.40211 17.4988 8.95974 15.9189 8.95974 13.9692C8.95974 12.0207 7.40211 10.4409 5.47987 10.4409ZM14.5201 10.4409C12.5978 10.4409 11.0402 12.0207 11.0402 13.9705C11.0402 15.9201 12.5978 17.5 14.5201 17.5C16.4412 17.5 18 15.9201 18 13.9705C18 12.0207 16.4424 10.4409 14.5201 10.4409Z" fill="#F06A6A"/>
</svg>
