<svg width="20" height="20" viewBox="0 0 20 20" fill="none" xmlns="http://www.w3.org/2000/svg">
<path d="M6.07271 8.90926C6.07271 9.13077 6.09666 9.31037 6.13857 9.44207C6.18646 9.57378 6.24632 9.71746 6.33014 9.87311C6.36007 9.921 6.37204 9.9689 6.37204 10.0108C6.37204 10.0707 6.33612 10.1305 6.2583 10.1904L5.88114 10.4418C5.82726 10.4778 5.77338 10.4957 5.72549 10.4957C5.66562 10.4957 5.60576 10.4658 5.54589 10.4119C5.46208 10.3221 5.39024 10.2263 5.33037 10.1305C5.2705 10.0288 5.21064 9.91502 5.14479 9.77732C4.67783 10.3281 4.09114 10.6035 3.38472 10.6035C2.88184 10.6035 2.48074 10.4598 2.18739 10.1724C1.89405 9.88508 1.74438 9.50194 1.74438 9.02301C1.74438 8.51415 1.92398 8.10107 2.28917 7.78977C2.65435 7.47846 3.13927 7.32281 3.75589 7.32281C3.95943 7.32281 4.16897 7.34077 4.39047 7.3707C4.61198 7.40064 4.83947 7.44853 5.07893 7.50241V7.06538C5.07893 6.6104 4.98315 6.29311 4.79756 6.10752C4.60599 5.92194 4.28271 5.83214 3.82174 5.83214C3.61221 5.83214 3.39669 5.85609 3.17519 5.90997C2.95368 5.96385 2.73816 6.0297 2.52863 6.11351C2.43285 6.15542 2.36101 6.17936 2.3191 6.19134C2.27719 6.20331 2.24726 6.2093 2.22331 6.2093C2.1395 6.2093 2.0976 6.14943 2.0976 6.02371V5.73037C2.0976 5.63458 2.10957 5.56274 2.1395 5.52084C2.16943 5.47893 2.22331 5.43702 2.30713 5.39512C2.51666 5.28736 2.7681 5.19756 3.06144 5.12572C3.35479 5.04789 3.66609 5.01197 3.99535 5.01197C4.70776 5.01197 5.2286 5.17361 5.56385 5.49689C5.89311 5.82017 6.06074 6.31107 6.06074 6.9696V8.90926H6.07271ZM3.64214 9.81923C3.8397 9.81923 4.04325 9.78331 4.25877 9.71147C4.47428 9.63963 4.66586 9.50793 4.82749 9.32833C4.92328 9.21458 4.99512 9.08886 5.03104 8.94518C5.06696 8.8015 5.09091 8.62789 5.09091 8.42435V8.17291C4.91729 8.131 4.73171 8.09508 4.54014 8.07114C4.34856 8.04719 4.16298 8.03522 3.97739 8.03522C3.57629 8.03522 3.28295 8.11304 3.08539 8.27468C2.88783 8.43632 2.79204 8.66381 2.79204 8.96314C2.79204 9.24451 2.86388 9.45405 3.01355 9.59772C3.15723 9.74739 3.36676 9.81923 3.64214 9.81923ZM8.4494 10.4658C8.34164 10.4658 8.2698 10.4478 8.22191 10.4059C8.17402 10.37 8.13211 10.2862 8.09619 10.1724L6.68933 5.54478C6.65341 5.42505 6.63545 5.34722 6.63545 5.30532C6.63545 5.20953 6.68335 5.15565 6.77913 5.15565H7.36582C7.47957 5.15565 7.55739 5.17361 7.5993 5.21552C7.64719 5.25144 7.68311 5.33525 7.71903 5.449L8.72478 9.41214L9.6587 5.449C9.68863 5.32926 9.72455 5.25144 9.77244 5.21552C9.82034 5.1796 9.90415 5.15565 10.0119 5.15565H10.4908C10.6046 5.15565 10.6824 5.17361 10.7303 5.21552C10.7782 5.25144 10.8201 5.33525 10.844 5.449L11.7899 9.46003L12.8256 5.449C12.8615 5.32926 12.9034 5.25144 12.9454 5.21552C12.9932 5.1796 13.0711 5.15565 13.1788 5.15565H13.7356C13.8314 5.15565 13.8853 5.20355 13.8853 5.30532C13.8853 5.33525 13.8793 5.36518 13.8733 5.4011C13.8673 5.43702 13.8553 5.48492 13.8314 5.55077L12.3886 10.1784C12.3527 10.2982 12.3108 10.376 12.2629 10.4119C12.215 10.4478 12.1372 10.4718 12.0354 10.4718H11.5205C11.4068 10.4718 11.329 10.4538 11.2811 10.4119C11.2332 10.37 11.1913 10.2922 11.1673 10.1724L10.2394 6.31107L9.31746 10.1665C9.28753 10.2862 9.25161 10.364 9.20371 10.4059C9.15582 10.4478 9.07201 10.4658 8.96425 10.4658H8.4494ZM16.1422 10.6274C15.8309 10.6274 15.5196 10.5915 15.2203 10.5197C14.9209 10.4478 14.6875 10.37 14.5318 10.2802C14.436 10.2263 14.3702 10.1665 14.3462 10.1126C14.3223 10.0587 14.3103 9.99883 14.3103 9.94495V9.63963C14.3103 9.51391 14.3582 9.45405 14.448 9.45405C14.4839 9.45405 14.5198 9.46003 14.5558 9.47201C14.5917 9.48398 14.6456 9.50793 14.7054 9.53187C14.909 9.62167 15.1305 9.69351 15.3639 9.7414C15.6034 9.7893 15.8369 9.81324 16.0764 9.81324C16.4535 9.81324 16.7469 9.74739 16.9504 9.61568C17.1539 9.48398 17.2617 9.29241 17.2617 9.04696C17.2617 8.87933 17.2078 8.74164 17.1001 8.62789C16.9923 8.51415 16.7888 8.41237 16.4954 8.31659L15.6274 8.04719C15.1903 7.9095 14.8671 7.70595 14.6695 7.43655C14.4719 7.17314 14.3702 6.8798 14.3702 6.56849C14.3702 6.31706 14.424 6.09555 14.5318 5.90398C14.6396 5.71241 14.7832 5.54478 14.9628 5.41308C15.1424 5.27538 15.346 5.17361 15.5855 5.10177C15.8249 5.02993 16.0764 5 16.3398 5C16.4715 5 16.6092 5.00599 16.7409 5.02395C16.8786 5.04191 17.0043 5.06585 17.13 5.0898C17.2497 5.11973 17.3635 5.14967 17.4712 5.18559C17.579 5.2215 17.6628 5.25742 17.7227 5.29334C17.8065 5.34124 17.8664 5.38913 17.9023 5.44301C17.9382 5.4909 17.9562 5.55676 17.9562 5.64057V5.92194C17.9562 6.04766 17.9083 6.11351 17.8185 6.11351C17.7706 6.11351 17.6927 6.08956 17.591 6.04167C17.2497 5.88602 16.8666 5.80819 16.4415 5.80819C16.1003 5.80819 15.8309 5.86207 15.6453 5.97582C15.4597 6.08956 15.3639 6.26318 15.3639 6.50863C15.3639 6.67625 15.4238 6.81993 15.5435 6.93368C15.6633 7.04742 15.8848 7.16117 16.2021 7.26294L17.0522 7.53234C17.4832 7.67003 17.7945 7.8616 17.9801 8.10706C18.1657 8.35251 18.2555 8.63388 18.2555 8.94518C18.2555 9.20261 18.2016 9.43609 18.0998 9.63963C17.9921 9.84318 17.8484 10.0228 17.6628 10.1665C17.4772 10.3161 17.2557 10.4239 16.9983 10.5017C16.7289 10.5855 16.4475 10.6274 16.1422 10.6274Z" fill="#252F3E"/>
<path fill-rule="evenodd" clip-rule="evenodd" d="M17.2736 13.537C15.304 14.9917 12.4424 15.764 9.98185 15.764C6.53356 15.764 3.4265 14.4888 1.07974 12.3696C0.894158 12.202 1.06178 11.9745 1.28329 12.1062C3.82162 13.5789 6.95262 14.4709 10.1914 14.4709C12.3765 14.4709 14.7771 14.0159 16.9862 13.082C17.3155 12.9323 17.5968 13.2975 17.2736 13.537Z" fill="#FF9900"/>
<path fill-rule="evenodd" clip-rule="evenodd" d="M18.0938 12.603C17.8423 12.2797 16.4295 12.4473 15.7889 12.5252C15.5973 12.5491 15.5674 12.3815 15.741 12.2558C16.8665 11.4655 18.7164 11.693 18.9319 11.9564C19.1474 12.2258 18.872 14.0757 17.8184 14.9617C17.6567 15.0994 17.5011 15.0276 17.5729 14.848C17.8124 14.2553 18.3452 12.9203 18.0938 12.603Z" fill="#FF9900"/>
</svg>
