<svg width="20" height="20" viewBox="0 0 20 20" fill="none" xmlns="http://www.w3.org/2000/svg">
<path d="M7.50791 2.95963C7.71679 3.07637 7.84615 3.29698 7.84605 3.53626L7.8524 9.34093H9.93768C11.0773 9.34076 12.1048 10.0271 12.541 11.0799C12.9772 12.1327 12.7363 13.3446 11.9305 14.1505C11.1248 14.9564 9.91287 15.1975 8.86 14.7615C7.80713 14.3254 7.12063 13.298 7.12063 12.1584L7.11809 10.0761H5.73242V12.1584C5.73242 14.4809 7.61518 16.3637 9.93768 16.3637C12.2602 16.3637 14.1429 14.4809 14.1429 12.1584C14.1429 9.8359 12.2602 7.95314 9.93768 7.95314H9.30029C9.0974 7.95314 8.93292 7.78867 8.93292 7.58577C8.93292 7.38288 9.0974 7.21841 9.30029 7.21841H9.93768C12.666 7.21841 14.8777 9.43012 14.8777 12.1584C14.8777 14.8867 12.666 17.0984 9.93768 17.0984C7.21065 17.0954 5.00071 14.8854 4.99768 12.1584V9.70872C4.99768 9.50576 5.16209 9.34116 5.36505 9.34093H7.11724L7.11132 3.66958L5.73242 4.51817V7.74745C5.73242 7.95034 5.56794 8.11482 5.36505 8.11482C5.16216 8.11482 4.99768 7.95034 4.99768 7.74745V4.47627C4.99825 4.24703 5.11716 4.03433 5.31214 3.91379L6.8396 2.97378C7.04335 2.84831 7.29903 2.8429 7.50791 2.95963ZM9.93556 10.0761H7.85325V12.158C7.85308 13.0002 8.36031 13.7597 9.1384 14.0821C9.9165 14.4045 10.8122 14.2265 11.4078 13.631C12.0035 13.0355 12.1817 12.1398 11.8594 11.3616C11.5371 10.5835 10.7778 10.0761 9.93556 10.0761ZM9.93768 11.5693C10.2631 11.5693 10.5268 11.833 10.5268 12.1584C10.5268 12.4838 10.2631 12.7475 9.93768 12.7475C9.61231 12.7475 9.34854 12.4838 9.34854 12.1584C9.34854 11.833 9.61231 11.5693 9.93768 11.5693Z" fill="#484ADC"/>
</svg>
