<svg width="20" height="20" viewBox="0 0 20 20" fill="none" xmlns="http://www.w3.org/2000/svg">
<g clip-path="url(#clip0_377_1030)">
<path d="M5.54977 15.6096L5.55568 15.5849C5.55568 15.5849 5.55159 15.6003 5.54977 15.6096ZM5.5375 15.6638L5.54159 15.6405C5.54159 15.6405 5.5375 15.6559 5.5375 15.6638ZM5.51159 15.7931L5.52386 15.7353C5.52035 15.7547 5.51626 15.774 5.51159 15.7931ZM14.1739 15.6638C14.1739 15.6638 14.1698 15.6484 14.1698 15.6405L14.1739 15.6638ZM14.1998 15.7931C14.1952 15.7777 14.1916 15.7565 14.1875 15.7353L14.1998 15.7931ZM14.158 15.5866C14.158 15.5866 14.1539 15.5712 14.1539 15.5655L14.158 15.5866ZM5.31477 9.34443C5.25798 9.35411 5.20347 9.37369 5.15386 9.40222C4.99886 9.49884 5.03477 9.72252 5.04841 9.87516C5.0725 10.1663 5.13977 10.4575 5.2175 10.7412C5.27295 10.9397 5.33886 11.1352 5.42659 11.3222C5.5216 11.1805 5.62718 11.0457 5.7425 10.919C5.83078 10.8217 5.92424 10.7289 6.0225 10.641C6.5375 10.18 7.04841 9.95016 7.04841 9.95016C6.55568 9.60472 5.95295 9.20899 5.31477 9.34222V9.34443ZM14.3966 9.34443C14.452 9.3559 14.508 9.37134 14.5575 9.40222C14.7125 9.49884 14.6766 9.72252 14.663 9.87516C14.6389 10.1663 14.5716 10.4575 14.4939 10.7412C14.4384 10.9397 14.3725 11.1352 14.2848 11.3222C14.1898 11.1805 14.0842 11.0457 13.9689 10.919C13.8806 10.8217 13.7871 10.7289 13.6889 10.641C13.1739 10.18 12.663 9.95016 12.663 9.95016C13.1557 9.60472 13.7584 9.20899 14.3966 9.34222V9.34443Z" fill="#002652"/>
<path d="M16.2555 3.42824C15.3009 2.5 13.7623 2.5 10.6873 2.5H9.025C5.94909 2.5 4.41045 2.5 3.45636 3.42824C2.5 4.35471 2.5 5.84765 2.5 8.83265V9.88441C2.5 12.8699 2.5 14.3632 3.45636 15.2897C3.62136 15.4499 3.81 15.5888 4.015 15.6991C4.23761 15.8169 4.4738 15.9087 4.71864 15.9726C4.84409 16.0079 4.97136 16.0344 5.10045 16.0578L5.41455 16.1121L5.45636 16.1196V16.1156C5.45636 16.1063 5.46045 16.0869 5.46045 16.0829C5.46045 16.0772 5.46045 16.0732 5.46227 16.0675C5.46636 16.0366 5.47227 16.0057 5.47409 15.9943L5.49227 15.8959C5.49227 15.8862 5.49591 15.8765 5.49818 15.8668L5.49227 15.8628C4.41045 15.006 3.91364 13.5184 3.91364 13.5184C4.32727 13.5029 4.77636 13.3066 4.77636 13.3066C5.03273 13.2193 5.33682 13.034 5.39045 12.7543C5.42045 12.5999 5.35273 12.4591 5.27727 12.3263C5.03864 11.9129 4.87364 11.4616 4.74636 11.0063C4.61909 10.5488 4.51409 10.0759 4.47409 9.60735C4.45227 9.36029 4.39455 8.99941 4.645 8.84324C4.72227 8.79471 4.81409 8.76956 4.90364 8.75059C5.93136 8.53618 6.90364 9.175 7.70091 9.73088L7.72864 9.71897C7.78455 9.6925 7.84227 9.66912 7.89955 9.64794C7.995 9.61485 8.09227 9.58971 8.19 9.56853C8.64727 9.45294 9.21591 9.38544 9.83 9.38544H9.88182C10.4959 9.38544 11.0627 9.45294 11.5218 9.56853C11.6195 9.58971 11.7168 9.61485 11.8123 9.64794C11.87 9.66691 11.9277 9.69206 11.9832 9.71897L12.0109 9.73088C12.8082 9.175 13.7805 8.53441 14.8082 8.75059C14.8977 8.76956 14.9891 8.79471 15.0668 8.84324C15.3168 9.00118 15.2595 9.36206 15.2377 9.60735C15.1977 10.0759 15.0905 10.5488 14.965 11.0059C14.84 11.4634 14.6732 11.9129 14.4345 12.3259C14.3591 12.4574 14.2936 12.5981 14.3209 12.7543C14.3727 13.0362 14.6768 13.2193 14.9355 13.3062C14.9355 13.3062 15.3845 13.5029 15.7982 13.5184C15.7982 13.5184 15.3014 15.006 14.2195 15.8628L14.2136 15.8672L14.2195 15.8959L14.2377 15.9943C14.2377 16.0057 14.2436 16.0366 14.2495 16.0675C14.2495 16.0732 14.2495 16.0772 14.2514 16.0829C14.2514 16.0829 14.2559 16.1063 14.2559 16.1156V16.12L14.2973 16.1121L14.6114 16.0578C14.7386 16.0349 14.8659 16.0057 14.9932 15.9731C15.2382 15.9094 15.4744 15.8174 15.6968 15.6991C15.9014 15.5888 16.0905 15.4499 16.2559 15.2897C17.2118 14.3619 17.2118 12.8703 17.2118 9.88529V8.83353C17.2118 5.84809 17.2118 4.35426 16.2555 3.42824Z" fill="#0075FF"/>
<path d="M7.96131 16.4068C7.96313 16.3935 7.96722 16.3834 7.96904 16.3719L8.01677 16.1637C8.03677 16.0825 8.0604 16.0013 8.08449 15.9206C8.14631 15.7199 8.22358 15.5152 8.37086 15.3647C8.53768 15.1927 8.77449 15.108 8.99677 15.0135C9.21949 14.9191 9.4504 14.8013 9.56949 14.5966C9.68677 14.3959 9.67495 14.1396 9.57768 13.9309C9.51222 13.7966 9.41945 13.6765 9.30495 13.578C9.24215 13.5223 9.17515 13.4713 9.10449 13.4253C8.53995 13.0569 7.77631 12.993 7.15404 13.2616C6.61904 13.4928 6.20768 13.9446 5.94313 14.4519C5.85302 14.6262 5.77659 14.8069 5.71449 14.9924C5.65086 15.1777 5.60131 15.3665 5.55768 15.5575V15.5672L5.55358 15.5884L5.54768 15.6135L5.54177 15.6427L5.53768 15.6656V15.6696C5.53358 15.693 5.52768 15.7159 5.52404 15.7371L5.51177 15.7949C5.51177 15.7949 5.50995 15.8081 5.50813 15.8143V15.828C5.50813 15.8337 5.50586 15.8372 5.50358 15.8434C5.50358 15.8491 5.50177 15.8566 5.49995 15.8624C5.49995 15.8721 5.49586 15.8818 5.49404 15.8915L5.47586 15.9899C5.47586 16.0013 5.46995 16.0322 5.46404 16.0631C5.46404 16.0688 5.46404 16.0728 5.46222 16.0785C5.46222 16.0785 5.45813 16.1019 5.45813 16.1116V16.1152C5.47813 16.1196 5.49995 16.1213 5.51995 16.1231L5.57949 16.1288C5.6054 16.1328 5.63131 16.1346 5.65904 16.1385L5.75449 16.15C5.79222 16.154 5.82813 16.1597 5.86586 16.1632C5.90768 16.1694 5.94904 16.1734 5.99086 16.1791C6.08632 16.1912 6.18178 16.2034 6.27722 16.2157C6.32904 16.2215 6.38268 16.229 6.43449 16.2352C6.48995 16.2427 6.54358 16.2484 6.59949 16.2563L6.76813 16.2793C6.82586 16.2872 6.88358 16.2947 6.94131 16.3044C6.99904 16.3124 7.05858 16.3221 7.11631 16.3296C7.17404 16.3371 7.23358 16.3472 7.29131 16.3565C7.34904 16.3662 7.40631 16.3741 7.46404 16.3834C7.52177 16.3931 7.57768 16.4028 7.63313 16.4107C7.68904 16.42 7.74222 16.4297 7.79813 16.4394C7.83177 16.4452 7.86768 16.4509 7.90177 16.4588L7.94722 16.4646L7.96086 16.4028V16.4068H7.96131ZM7.90177 14.3324C7.90177 14.1431 8.05858 13.9909 8.25358 13.9909C8.34689 13.9909 8.43638 14.0269 8.50236 14.0909C8.56834 14.1549 8.6054 14.2418 8.6054 14.3324C8.6054 14.4229 8.56834 14.5098 8.50236 14.5738C8.43638 14.6379 8.34689 14.6738 8.25358 14.6738C8.20737 14.6739 8.16159 14.6651 8.11888 14.648C8.07617 14.6308 8.03736 14.6057 8.00468 14.5739C7.972 14.5422 7.94608 14.5046 7.92842 14.4631C7.91077 14.4217 7.90171 14.3772 7.90177 14.3324ZM14.2513 16.0825C14.2513 16.0768 14.2513 16.0728 14.2495 16.0671C14.2454 16.0362 14.2395 16.0053 14.2377 15.9938L14.2195 15.8955C14.2195 15.8857 14.2159 15.876 14.2136 15.8663C14.2133 15.8597 14.2121 15.8532 14.2099 15.8469C14.2099 15.8412 14.2077 15.8377 14.2054 15.8315V15.8257C14.2054 15.8257 14.2036 15.8222 14.2036 15.8182C14.2036 15.8125 14.2018 15.8068 14.1999 15.7988L14.1877 15.741C14.184 15.7199 14.1781 15.6969 14.174 15.6735V15.6696L14.1699 15.6466C14.168 15.6369 14.166 15.6272 14.164 15.6175L14.1581 15.5924L14.154 15.5712V15.5615C14.1118 15.3706 14.0595 15.182 13.9972 14.9963C13.9351 14.8109 13.8587 14.6302 13.7686 14.4559C13.504 13.9485 13.0922 13.4968 12.5577 13.2652C12.244 13.1337 11.9017 13.0799 11.5614 13.1086C11.221 13.1372 10.8933 13.2474 10.6077 13.4293C10.5369 13.4752 10.4697 13.5262 10.4068 13.5819C10.2931 13.6821 10.1977 13.7999 10.134 13.9349C10.0349 14.1453 10.0249 14.3999 10.1422 14.6006C10.2613 14.8053 10.4922 14.9249 10.7149 15.0175C10.9377 15.1119 11.174 15.1966 11.3409 15.3687C11.4899 15.5209 11.5654 15.7238 11.6272 15.9246C11.6513 16.0053 11.6749 16.0865 11.6949 16.1672L11.7427 16.3759C11.7445 16.3874 11.7486 16.3971 11.7504 16.4085L11.764 16.4725L11.8099 16.4663C11.844 16.4606 11.8799 16.4531 11.9136 16.4474L12.0786 16.4182C12.134 16.4085 12.1922 16.3988 12.2477 16.3913C12.3054 16.3816 12.3627 16.3737 12.4204 16.3644C12.4781 16.3547 12.5377 16.3468 12.5954 16.3371C12.6531 16.3296 12.7127 16.3199 12.7704 16.3124C12.8281 16.3044 12.8859 16.2969 12.9431 16.2872L13.1122 16.2638C13.1681 16.2563 13.2213 16.2484 13.2772 16.2427C13.329 16.2352 13.3827 16.2294 13.4345 16.2232C13.4845 16.2175 13.5336 16.2118 13.5836 16.2043L13.7209 16.1866C13.7622 16.1809 13.804 16.1769 13.8459 16.1712C13.8836 16.1677 13.9195 16.1615 13.9572 16.158L14.0527 16.146C14.0786 16.1425 14.1045 16.1403 14.1322 16.1368L14.1918 16.1306C14.2118 16.1288 14.2336 16.1271 14.2536 16.1231V16.1191C14.2536 16.1094 14.2495 16.09 14.2495 16.0865L14.2513 16.0825ZM11.4604 14.6721C11.4142 14.6721 11.3684 14.6633 11.3257 14.6462C11.283 14.6291 11.2442 14.6039 11.2115 14.5722C11.1788 14.5405 11.1529 14.5028 11.1352 14.4613C11.1176 14.4199 11.1085 14.3755 11.1086 14.3306C11.1086 14.1413 11.2654 13.9891 11.4604 13.9891C11.6549 13.9891 11.8122 14.1413 11.8122 14.3306C11.8123 14.3755 11.8032 14.4199 11.7856 14.4613C11.7679 14.5028 11.742 14.5405 11.7093 14.5722C11.6766 14.6039 11.6378 14.6291 11.5951 14.6462C11.5524 14.6633 11.5066 14.6721 11.4604 14.6721ZM10.7622 16.6693C10.7486 16.6459 10.7349 16.6252 10.7186 16.6018C10.7032 16.5814 10.6873 16.5614 10.6709 16.5418C10.6409 16.5049 10.6069 16.4713 10.5695 16.4416C10.5526 16.4269 10.5347 16.4134 10.5159 16.401C10.4982 16.3877 10.4796 16.3755 10.4604 16.3644C10.4422 16.3525 10.4222 16.3432 10.4045 16.3335C10.3863 16.3238 10.3668 16.3159 10.349 16.3062C10.3309 16.2987 10.3127 16.2907 10.2931 16.285C10.2749 16.2793 10.2577 16.2718 10.2395 16.2674C10.2213 16.2621 10.2036 16.2581 10.1877 16.2524L10.1381 16.2409C10.1222 16.2365 10.1063 16.2352 10.0904 16.2312L10.0468 16.2255C10.0331 16.2255 10.0209 16.221 10.0068 16.221C9.96323 16.2174 9.91955 16.2156 9.87586 16.2157H9.84404C9.8004 16.2157 9.75631 16.2157 9.71268 16.2215C9.6994 16.2218 9.68618 16.2231 9.67313 16.2255C9.65904 16.2255 9.64313 16.229 9.62904 16.2312C9.61294 16.2335 9.59701 16.2367 9.58131 16.2409L9.53177 16.2524C9.51415 16.2564 9.49684 16.2615 9.47995 16.2678L9.42631 16.2855C9.40813 16.293 9.38858 16.2987 9.37086 16.3062C9.35086 16.3141 9.33313 16.3238 9.31495 16.3335C9.29582 16.3427 9.2773 16.353 9.25949 16.3644C9.24131 16.3759 9.22177 16.3874 9.20358 16.401L9.14995 16.4416C9.13177 16.4571 9.11404 16.4725 9.09858 16.488C9.0804 16.5052 9.06449 16.5224 9.04858 16.5418C9.01396 16.5813 8.98337 16.624 8.95722 16.6693C8.94358 16.6922 8.92949 16.7174 8.91722 16.7425C8.95633 16.8079 9.00299 16.8687 9.05631 16.9238C9.15404 17.0297 9.26722 17.1246 9.39677 17.1921C9.53995 17.2671 9.70086 17.3041 9.86404 17.3059C10.0268 17.3052 10.187 17.2661 10.3309 17.1921C10.4604 17.1246 10.5736 17.0302 10.6709 16.9238C10.7209 16.8678 10.7686 16.81 10.8081 16.7465L10.8099 16.7421C10.7979 16.7172 10.7847 16.6929 10.7704 16.6693H10.7622Z" fill="#002652"/>
</g>
<defs>
<clipPath id="clip0_377_1030">
<rect width="15" height="15" fill="white" transform="translate(2.5 2.5)"/>
</clipPath>
</defs>
</svg>
