<svg width="20" height="20" viewBox="0 0 20 20" fill="none" xmlns="http://www.w3.org/2000/svg">
<path d="M13.0064 14.0142C13.1034 13.5946 13.0659 13.2098 12.9033 12.9223C12.7532 12.6619 12.4999 12.5104 12.1966 12.4909L6.42134 12.3977C6.38695 12.3977 6.35255 12.3744 6.33379 12.3394C6.31503 12.3044 6.3119 12.2578 6.32128 12.2111C6.34004 12.1412 6.39633 12.0868 6.45574 12.0829L12.2841 11.9896C12.9752 11.9508 13.7256 11.2552 13.9883 10.4041L14.3197 9.32383C14.3354 9.2772 14.3385 9.23057 14.3291 9.18394C13.9539 7.07383 12.4374 5.5 10.6269 5.5C8.9572 5.5 7.54075 6.84067 7.0342 8.70207C6.70588 8.39896 6.28689 8.23575 5.83662 8.29016C5.03303 8.38731 4.39203 9.18782 4.31073 10.1865C4.29197 10.443 4.3076 10.6956 4.3545 10.9288C3.04436 10.9754 2 12.3044 2 13.9443C2 14.0881 2.00938 14.2358 2.02501 14.3795C2.03439 14.4495 2.0813 14.5 2.13758 14.5H12.797C12.8564 14.5 12.9158 14.4456 12.9314 14.3718L13.0064 14.0142ZM14.845 9.40155C14.795 9.40155 14.7387 9.40155 14.6856 9.40933C14.648 9.40933 14.6168 9.4443 14.6011 9.49093L14.376 10.4624C14.2791 10.8821 14.3135 11.2668 14.4792 11.5544C14.6293 11.8148 14.8825 11.9663 15.189 11.9858L16.4178 12.079C16.4553 12.079 16.4897 12.1023 16.5054 12.1373C16.5241 12.1723 16.5273 12.2267 16.521 12.2655C16.5022 12.3355 16.446 12.3899 16.3834 12.3938L15.1014 12.487C14.4073 12.5259 13.6631 13.2215 13.3973 14.0725L13.3035 14.3679C13.2847 14.4262 13.3191 14.4845 13.3692 14.4845H17.7717C17.8218 14.4845 17.8687 14.4456 17.8843 14.3795C17.9594 14.0414 18 13.6839 18 13.3187C18 11.1619 16.5835 9.40155 14.8419 9.40155" fill="#F38020"/>
</svg>
