<svg width="20" height="20" viewBox="0 0 20 20" fill="none" xmlns="http://www.w3.org/2000/svg">
<path d="M10.8781 8.07164C10.4324 8.06894 9.99989 8.2524 9.67473 8.55371C9.12637 9.03071 8.88204 9.82526 9.08173 10.526C9.29546 11.3156 10.0373 11.9314 10.8573 11.9767C11.1198 11.9849 11.3857 11.9429 11.6365 11.8668C11.9848 11.7378 12.2968 11.5075 12.5347 11.2235C12.6872 11.0023 12.8164 10.7578 12.8861 10.4976C12.9243 10.2022 12.914 9.90084 12.8971 9.60409C12.8475 9.27099 12.6652 8.96781 12.4473 8.71638C12.1154 8.35013 11.6456 8.07536 11.1406 8.07621C11.0532 8.07157 10.9656 8.07004 10.8781 8.07164Z" fill="#50CC84"/>
<path d="M10.6859 3.29845C10.1788 3.3047 9.6677 3.34038 9.18072 3.49205C7.75801 3.88197 6.45332 4.72522 5.56544 5.91002C4.83803 6.8591 4.3734 7.98302 4.21831 9.16869C4.16945 9.82729 4.17249 10.4945 4.27293 11.1482C4.54753 12.6665 5.34782 14.0875 6.52772 15.0856C7.52501 15.9321 8.76645 16.4961 10.0645 16.6668C10.7233 16.7107 11.3868 16.6805 12.042 16.6054C13.1908 16.4035 14.2798 15.8873 15.182 15.1507C15.4187 14.9596 15.6284 14.7391 15.8381 14.5195C15.0932 13.8682 14.4037 13.156 13.6622 12.5013C13.6046 12.4412 13.5182 12.4324 13.4624 12.4999C13.1401 12.7857 12.8046 13.0669 12.4054 13.2392C11.692 13.5682 10.8726 13.636 10.1139 13.4826C9.63371 13.3846 9.1743 13.217 8.75276 12.958C8.45854 12.75 8.19815 12.4909 7.97952 12.2048C7.72639 11.7972 7.52044 11.3535 7.40664 10.886C7.29995 10.3944 7.30485 9.89544 7.35304 9.39476C7.40326 8.97881 7.57015 8.56048 7.7783 8.19779C8.17126 7.5096 8.80602 6.96851 9.52431 6.67024C9.84253 6.52821 10.1846 6.44502 10.5336 6.43893C10.9639 6.42456 11.4046 6.41323 11.8249 6.51975C12.2862 6.65841 12.7329 6.90139 13.135 7.1819C13.2241 7.27828 13.3515 7.2098 13.4191 7.12543C13.9538 6.55171 14.4465 5.94012 14.9666 5.35338L15.3136 4.95636C14.8631 4.53364 14.3423 4.1914 13.7815 3.93388C13.181 3.66047 12.5488 3.44031 11.8941 3.34512C11.493 3.30183 11.0892 3.29354 10.6859 3.29845Z" fill="black"/>
</svg>
