<svg width="20" height="20" viewBox="0 0 20 20" fill="none" xmlns="http://www.w3.org/2000/svg">
<path fill-rule="evenodd" clip-rule="evenodd" d="M16.7657 10.3985V10.2337L15.3707 9.03296H15.2081C14.8245 9.45683 14.2322 9.77446 13.5695 9.77446C12.5351 9.77446 11.7212 8.98574 11.7212 7.903C11.7212 6.82026 12.5351 6.03154 13.5695 6.03154C14.2322 6.03154 14.8245 6.34917 15.2081 6.77304H15.3707L16.7657 5.57226V5.40754C16.0333 4.51312 14.883 3.93634 13.5808 3.93634C11.1868 3.93634 9.37378 5.63128 9.37378 7.903C9.37378 7.99099 9.39363 8.07201 9.39953 8.15839C10.3793 8.82478 11.2442 9.3581 11.9889 9.84636C13.0625 10.5256 13.929 11.1507 14.6426 11.7318C15.4748 11.5259 16.2189 11.0586 16.7657 10.3985ZM10.2467 10.3561C10.8058 11.0428 11.5951 11.5354 12.526 11.7457C11.8971 11.3921 11.2882 11.045 10.721 10.6608C10.5547 10.5578 10.4066 10.458 10.2467 10.3561Z" fill="#FC0000"/>
<path fill-rule="evenodd" clip-rule="evenodd" d="M17.9999 18.8543C17.4425 17.5784 16.3227 15.9409 11.937 13.6037C9.91425 12.4791 6.45891 10.7477 3.35233 7.45496C3.63402 8.64286 5.07732 11.2531 11.2824 14.5105C13.0015 15.4511 15.9085 16.3331 17.9999 18.85M17.7209 16.6706C17.1919 15.1629 16.2369 13.2324 11.7063 10.3662C9.50057 8.92079 6.26039 7.10567 2.00024 2.47906C2.305 3.72653 3.65172 6.96992 10.4401 11.1818C12.6699 12.6927 15.5479 13.6247 17.7209 16.6706Z" fill="#FC0000"/>
</svg>
