<svg width="20" height="20" viewBox="0 0 20 20" fill="none" xmlns="http://www.w3.org/2000/svg">
<path fill-rule="evenodd" clip-rule="evenodd" d="M15.0039 13.3605L13.6746 12.4825L12.5657 14.3374L11.2759 13.9598L10.1403 15.6954L10.1985 16.2418L16.373 15.1025L16.0143 11.2394L15.0039 13.3605ZM9.24578 11.6949L10.2364 11.5585C10.3967 11.6307 10.5083 11.6581 10.7005 11.7071C10.9998 11.7852 11.3463 11.8601 11.8594 11.6011C11.9788 11.5419 12.2276 11.3141 12.3281 11.1843L16.3869 10.447L16.801 15.465L9.84754 16.7199L9.24578 11.6949ZM16.7853 9.88678L16.3847 9.96321L15.615 2L2.5 3.52283L4.11572 16.6525L5.65084 16.4294C5.52825 16.2541 5.33736 16.042 5.01138 15.7705C4.55926 15.3944 4.71917 14.7556 4.98582 14.3521C5.33867 13.6705 7.15666 12.8043 7.05366 11.7147C7.01671 11.3186 6.95383 10.8029 6.58661 10.4496C6.5728 10.5963 6.59762 10.7375 6.59762 10.7375C6.59762 10.7375 6.44685 10.5449 6.37166 10.2822C6.29702 10.1814 6.23843 10.1493 6.15912 10.0148C6.10259 10.1704 6.11005 10.3509 6.11005 10.3509C6.11005 10.3509 5.98671 10.0591 5.96674 9.81279C5.8936 9.92303 5.87513 10.1325 5.87513 10.1325C5.87513 10.1325 5.71484 9.67247 5.75141 9.4247C5.67827 9.20908 5.46145 8.78119 5.52284 7.80863C5.92308 8.08947 6.80418 8.02276 7.14752 7.51602C7.26153 7.34823 7.33952 6.89007 7.09061 5.9874C6.93069 5.40853 6.53474 4.54659 6.38043 4.2196L6.36195 4.23287C6.44331 4.49633 6.61106 5.04866 6.67543 5.31641C6.87024 6.12865 6.92248 6.41136 6.83105 6.78581C6.75324 7.1113 6.56665 7.32431 6.09363 7.56236C5.62061 7.80116 4.99291 7.22005 4.95316 7.18791C4.49358 6.82131 4.13812 6.2232 4.09837 5.93265C4.05713 5.61463 4.28142 5.42367 4.3945 5.16357C4.23272 5.20991 4.05228 5.29212 4.05228 5.29212C4.05228 5.29212 4.26761 5.06902 4.53314 4.87601C4.64304 4.80314 4.7076 4.7568 4.82348 4.66038C4.65573 4.65758 4.51952 4.66244 4.51952 4.66244C4.51952 4.66244 4.79922 4.51109 5.08919 4.40085C4.87703 4.3915 4.67402 4.39935 4.67402 4.39935C4.67402 4.39935 5.29818 4.11982 5.79116 3.91466C6.1302 3.77546 6.46141 3.81656 6.64744 4.086C6.8917 4.43896 7.14826 4.63067 7.692 4.74951C8.02582 4.60134 8.12733 4.5251 8.54679 4.41075C8.91606 4.00416 9.20603 3.95147 9.20603 3.95147C9.20603 3.95147 9.06217 4.08357 9.02373 4.29116C9.23309 4.12599 9.4626 3.98809 9.4626 3.98809C9.4626 3.98809 9.37378 4.09796 9.29093 4.27248L9.31015 4.30107C9.5544 4.15439 9.84157 4.03873 9.84157 4.03873C9.84157 4.03873 9.75947 4.14262 9.66319 4.27715C9.84736 4.27566 10.2209 4.285 10.3659 4.30144C11.2218 4.32031 11.3995 3.38606 11.7279 3.2689C12.1391 3.12185 12.3229 3.03291 13.0238 3.7222C13.6252 4.31396 14.095 5.37322 13.8618 5.61052C13.6662 5.80746 13.2803 5.53372 12.8527 4.99989C12.6267 4.71718 12.4558 4.3831 12.3757 3.95838C12.3082 3.6 12.0453 3.39204 12.0453 3.39204C12.0453 3.39204 12.1979 3.73173 12.1979 4.03182C12.1979 4.19568 12.2184 4.80837 12.4808 5.15217C12.4548 5.20244 12.4427 5.40087 12.414 5.4388C12.1087 5.0694 11.4532 4.805 11.3463 4.72709C11.7081 5.02399 12.5397 5.706 12.8592 6.3596C13.1613 6.9777 12.9833 7.54424 13.1361 7.69091C13.1796 7.73296 13.7858 8.48933 13.9024 8.86938C14.1058 9.53177 13.9146 10.2278 13.6483 10.6596L12.9047 10.7756C12.7959 10.7454 12.7226 10.7302 12.625 10.6736C12.6787 10.5783 12.7857 10.3406 12.7868 10.2917L12.7448 10.2179C12.5134 10.5462 12.1257 10.8649 11.8036 11.0481C11.3821 11.2872 10.8962 11.2504 10.5799 11.1523C9.68222 10.875 8.8334 10.2676 8.62871 10.108C8.62871 10.108 8.62236 10.2354 8.66099 10.264C8.88733 10.5196 9.40587 10.9821 9.90707 11.3044L8.83863 11.4221L9.34374 15.3606C9.11982 15.3927 9.08493 15.4084 8.83975 15.4434C8.62367 14.6789 8.21036 14.1799 7.75862 13.8891C7.36024 13.6328 6.81071 13.575 6.2847 13.6793L6.25093 13.7185C6.61665 13.6804 7.04844 13.7335 7.49197 14.0147C7.9273 14.2903 8.2781 15.0022 8.40722 15.4308C8.57254 15.9787 8.68692 16.5646 8.2419 17.1857C7.92524 17.6273 7.00085 17.8713 6.2541 17.3434C6.45357 17.6646 6.7232 17.9273 7.08613 17.9769C7.62501 18.0501 8.13647 17.9565 8.48857 17.5946C8.78918 17.2851 8.94853 16.6381 8.90655 15.9566L9.38218 15.8875L9.55384 17.1106L17.4278 16.1612L16.7853 9.88678ZM11.9949 6.56514C11.9729 6.6154 11.9383 6.64829 11.9902 6.81178L11.9934 6.82112L12.0016 6.84224L12.0232 6.89119C12.1167 7.08253 12.2194 7.26303 12.3908 7.35514C12.4352 7.34767 12.4811 7.34262 12.5287 7.3402C12.6898 7.3331 12.7915 7.35869 12.856 7.39345C12.8618 7.36131 12.8631 7.31422 12.8596 7.2449C12.8471 7.00256 12.9075 6.59036 12.4423 6.37343C12.2667 6.29178 12.0204 6.317 11.9383 6.41883C11.9533 6.4207 11.9667 6.42388 11.9772 6.42743C12.1012 6.47097 12.0171 6.51375 11.9949 6.56514ZM13.2986 8.82641C13.2376 8.79277 12.9525 8.80604 12.7521 8.82996C12.3703 8.87499 11.9581 9.00765 11.8678 9.07828C11.7036 9.20534 11.7782 9.42695 11.8995 9.51794C12.2397 9.77243 12.5379 9.94303 12.8527 9.90155C13.046 9.87613 13.2163 9.5697 13.3371 9.29167C13.4197 9.10014 13.4197 8.89349 13.2986 8.82641ZM9.91864 6.86522C10.0263 6.76283 9.38236 6.62829 8.88266 6.96948C8.51414 7.22117 8.50238 7.7608 8.85523 8.06667C8.8905 8.09694 8.91961 8.11843 8.94685 8.13599C9.04985 8.08741 9.16722 8.03827 9.30231 7.99436C9.53052 7.92018 9.72029 7.88188 9.87628 7.86151C9.95092 7.77799 10.0377 7.63094 10.016 7.36467C9.98656 7.00349 9.7132 7.06085 9.91864 6.86522Z" fill="#632CA6"/>
</svg>
