<svg width="20" height="20" viewBox="0 0 20 20" fill="none" xmlns="http://www.w3.org/2000/svg">
<path d="M7.33577 3.33977C7.13014 4.42505 6.87881 6.03585 6.74172 7.66949C6.50182 10.5484 6.65033 12.479 6.65033 12.479L2.59478 16.3289C2.59478 16.3289 2.28633 14.1698 2.1264 11.7365C2.035 10.2285 2.00073 8.90329 2.00073 8.10361C2.00073 8.05791 2.02358 8.01221 2.02358 7.96652C2.02358 7.9094 2.09213 7.37247 2.61763 6.86981C3.18884 6.32145 7.40432 3.01989 7.33577 3.33977Z" fill="#1496FF"/>
<path d="M7.33578 3.33977C7.13014 4.42505 6.87881 6.03585 6.74172 7.66949C6.74172 7.66949 2.25206 7.13256 2.00073 8.21785C2.00073 8.16073 2.0807 7.49813 2.60621 6.99547C3.17741 6.44712 7.40432 3.01989 7.33578 3.33977Z" fill="#1284EA"/>
<path d="M2.001 7.95509V8.20642C2.0467 8.01221 2.12667 7.87512 2.2866 7.65806C2.6179 7.23537 3.15483 7.12113 3.37189 7.09828C4.4686 6.94977 6.09082 6.77841 7.72446 6.73271C10.6148 6.64132 12.5226 6.88123 12.5226 6.88123L16.5781 3.03131C16.5781 3.03131 14.4532 2.63147 12.0313 2.34587C10.4434 2.15166 9.04966 2.04884 8.26139 2.00315C8.20427 2.00315 7.6445 1.9346 7.11899 2.43726C6.54778 2.98562 3.64607 5.73882 2.48081 6.84695C1.95531 7.34961 2.001 7.90939 2.001 7.95509Z" fill="#B4DC00"/>
<path d="M16.4293 12.8789C15.3326 13.0274 13.7104 13.2102 12.0768 13.2673C9.18646 13.3587 7.26722 13.1188 7.26722 13.1188L3.21167 16.9801C3.21167 16.9801 5.3594 17.4028 7.7813 17.677C9.26643 17.8483 10.5802 17.9397 11.3799 17.9854C11.437 17.9854 11.5284 17.9397 11.5855 17.9397C11.6426 17.9397 12.2024 17.8369 12.7279 17.3343C13.2991 16.7859 16.7492 12.8446 16.4293 12.8789Z" fill="#6F2DA8"/>
<path d="M16.4295 12.8789C15.3327 13.0274 13.7105 13.2102 12.0769 13.2673C12.0769 13.2673 12.3853 17.7798 11.3 17.974C11.3572 17.974 12.0997 17.9397 12.6252 17.4371C13.1964 16.8887 16.7493 12.8446 16.4295 12.8789Z" fill="#591F91"/>
<path d="M11.5399 17.9969C11.4599 17.9969 11.38 17.9854 11.2886 17.9854C11.4942 17.9512 11.6313 17.8826 11.8484 17.7227C12.2825 17.4142 12.4196 16.8773 12.4653 16.6602C12.6595 15.575 12.9222 13.9642 13.0479 12.3305C13.2764 9.45165 13.1393 7.5324 13.1393 7.5324L17.1948 3.67107C17.1948 3.67107 17.4918 5.81879 17.6632 8.25212C17.766 9.84007 17.8003 11.2452 17.8117 12.0221C17.8117 12.0792 17.8574 12.639 17.3319 13.1416C16.7607 13.69 13.859 16.4546 12.7052 17.5627C12.1568 18.0654 11.597 17.9969 11.5399 17.9969Z" fill="#73BE28"/>
</svg>
