<svg width="20" height="20" viewBox="0 0 20 20" fill="none" xmlns="http://www.w3.org/2000/svg">
<path d="M8.14733 8.74409L11.9358 10.4787L15.7658 7.12055C15.8216 6.84185 15.8495 6.55827 15.849 6.27404C15.849 3.91503 13.934 2 11.5749 2C10.1595 2 8.84122 2.69382 8.05023 3.85944L7.41187 7.16219L8.14733 8.74409Z" fill="#F4BD19"/>
<path d="M4.22067 12.7545C4.16521 13.0321 4.13745 13.3235 4.13745 13.6149C4.13745 15.9739 6.0663 17.9028 8.42537 17.9028C9.85472 17.9028 11.173 17.1951 11.9778 16.0295L12.6023 12.7268L11.7558 11.117L7.95357 9.38246L4.22067 12.7545Z" fill="#3CBEB1"/>
<path d="M4.19279 6.19076L6.78777 6.80137L7.37055 3.84557C7.00979 3.56803 6.57956 3.42929 6.12164 3.42929C4.99759 3.42929 4.06787 4.34513 4.06787 5.48306C4.06787 5.71896 4.10958 5.96874 4.19279 6.19076Z" fill="#E9478C"/>
<path d="M3.97049 6.81519C2.80487 7.18989 2 8.31394 2 9.53508C2 10.7285 2.73546 11.7971 3.84563 12.2133L7.49525 8.9106L6.82912 7.48138L3.97049 6.81519Z" fill="#2C458F"/>
<path d="M12.6431 16.0156C13.0038 16.2932 13.4341 16.4458 13.8781 16.4458C15.0021 16.4458 15.9319 15.53 15.9319 14.392C15.9319 14.1422 15.8902 13.9063 15.807 13.6843L13.212 13.0737L12.6431 16.0156Z" fill="#95C63D"/>
<path d="M13.1709 12.3937L16.0296 13.0598C17.1952 12.6713 18.0001 11.5612 18.0001 10.3399C18.0001 9.1465 17.2646 8.09192 16.1544 7.66176L12.4077 10.9367L13.1709 12.3937Z" fill="#176655"/>
</svg>
