<svg width="20" height="20" viewBox="0 0 20 20" fill="none" xmlns="http://www.w3.org/2000/svg">
<path fill-rule="evenodd" clip-rule="evenodd" d="M3 17.4225C3 17.7414 3.26567 18 3.59341 18H16.4066C16.7343 18 17 17.7414 17 17.4225V2.57754C17 2.25857 16.7343 2 16.4066 2H3.59341C3.26567 2 3 2.25857 3 2.57754V17.4225Z" fill="#1AAE51"/>
<path fill-rule="evenodd" clip-rule="evenodd" d="M6.23473 5.46524L13.9955 14.8557L6.23473 5.46524ZM5.99951 14.8556L13.7174 5.46518L5.99951 14.8556Z" fill="white"/>
<path fill-rule="evenodd" clip-rule="evenodd" d="M14.6699 4.30635C15.3099 4.83236 15.4023 5.7776 14.8763 6.41761L11.9302 10.0021L15.1517 13.9001C15.6795 14.5387 15.5897 15.4842 14.9511 16.0119C14.3125 16.5397 13.367 16.4498 12.8393 15.8113L9.98964 12.3632L7.15838 15.808C6.63237 16.448 5.68713 16.5404 5.04713 16.0144C4.40712 15.4884 4.31472 14.5432 4.84073 13.9032L8.04265 10.0074L5.07854 6.42081C4.55079 5.78224 4.64063 4.83675 5.2792 4.30901C5.91777 3.78126 6.86326 3.8711 7.39101 4.50967L9.98323 7.64624L12.5586 4.51275C13.0846 3.87275 14.0299 3.78034 14.6699 4.30635Z" fill="white"/>
</svg>
