<svg width="20" height="20" viewBox="0 0 20 20" fill="none" xmlns="http://www.w3.org/2000/svg">
<path d="M12.6407 7.05116L14.0315 5.66034L14.1242 5.07472C11.5898 2.77016 7.56098 3.03147 5.27624 5.61997C4.64167 6.33891 4.17086 7.23522 3.9198 8.16078L4.41792 8.09059L7.19948 7.63184L7.41423 7.41228C8.65155 6.05341 10.7436 5.87059 12.1722 7.02678L12.6407 7.05116Z" fill="#EA4335"/>
<path d="M16.0128 8.11983C15.6931 6.94258 15.0368 5.88426 14.1242 5.07471L12.1723 7.02671C12.5791 7.35911 12.9051 7.77956 13.1257 8.25633C13.3464 8.73311 13.4559 9.25376 13.4459 9.77902V10.1255C14.4053 10.1255 15.1832 10.9033 15.1832 11.8628C15.1832 12.8223 14.4054 13.5806 13.4459 13.5806H9.9665L9.62488 13.9514V16.0352L9.9665 16.3621H13.4459C15.9415 16.3816 17.9804 14.3938 17.9999 11.8981C18.0057 11.1534 17.8273 10.4187 17.4806 9.75955C17.134 9.10037 16.6297 8.53709 16.0128 8.11983Z" fill="#4285F4"/>
<path d="M6.49161 16.3622H9.96617V13.5806H6.49161C6.24565 13.5805 6.0026 13.5273 5.77917 13.4245L5.28623 13.5757L3.88567 14.9665L3.76367 15.4399C4.54911 16.033 5.50742 16.3665 6.49161 16.3622Z" fill="#34A853"/>
<path d="M6.49189 7.33902C3.99627 7.35396 1.98521 9.3892 2.00008 11.8849C2.00418 12.5726 2.16521 13.2503 2.47088 13.8664C2.77655 14.4824 3.21881 15.0206 3.76396 15.4399L5.77945 13.4245C4.90508 13.0295 4.51645 12.0003 4.91152 11.126C5.30652 10.2516 6.33564 9.86302 7.20995 10.258C7.59524 10.4321 7.90383 10.7407 8.07789 11.126L10.0934 9.11052C9.67036 8.55748 9.12514 8.10979 8.50036 7.80247C7.87557 7.49515 7.18816 7.33653 6.49189 7.33902Z" fill="#FBBC05"/>
</svg>
