<svg width="20" height="20" viewBox="0 0 20 20" fill="none" xmlns="http://www.w3.org/2000/svg">
<mask id="mask0_377_1014" style="mask-type:luminance" maskUnits="userSpaceOnUse" x="2" y="2" width="15" height="16">
<path d="M8.56145 3.82651C8.56145 3.82651 8.55582 3.8498 8.54859 3.88916C8.48193 3.90843 8.41526 3.92691 8.34859 3.94859C8.25622 3.97671 8.16546 4.01044 8.07309 4.04337C7.98233 4.07871 7.88996 4.11406 7.8 4.15422C7.61847 4.23213 7.43855 4.31968 7.26265 4.41847C7.09237 4.51406 6.9245 4.61928 6.76145 4.73333C6.73815 4.72209 6.71968 4.71406 6.71968 4.71406C5.05462 4.07791 3.5759 4.84337 3.5759 4.84337C3.44096 6.61446 4.24096 7.73092 4.3992 7.93333C4.35984 8.04257 4.32289 8.15341 4.28916 8.26506C4.16627 8.66667 4.0739 9.07871 4.01687 9.50442C4.00884 9.56546 4.00161 9.62731 3.99438 9.68916C2.45622 10.449 2 12.0064 2 12.0064C3.28434 13.4835 4.78153 13.5751 4.78153 13.5751C4.78313 13.5743 4.78394 13.5727 4.78554 13.5719C4.9759 13.9116 5.19598 14.2353 5.44418 14.5365C5.54779 14.6627 5.65703 14.7847 5.77028 14.9028C5.30201 16.2418 5.83614 17.3558 5.83614 17.3558C7.26586 17.4096 8.20482 16.7301 8.40241 16.5735C8.54458 16.6217 8.68916 16.6643 8.83454 16.702C9.27389 16.8153 9.72369 16.8819 10.1735 16.9012C10.2859 16.906 10.3984 16.9084 10.51 16.9076H10.5647L10.6 16.9068L10.6707 16.9044L10.7406 16.9012L10.7422 16.9036C11.4153 17.8643 12.6 18 12.6 18C13.4426 17.1116 13.4908 16.2305 13.4908 16.0402V16.0273C13.4908 16.0112 13.49 16.0008 13.49 16.0008C13.4892 15.9871 13.4892 15.9743 13.4875 15.9598C13.6643 15.8361 13.8329 15.7028 13.9928 15.5598C14.3301 15.2546 14.6249 14.9076 14.8691 14.5325C14.8924 14.4972 14.9149 14.4618 14.9365 14.4257C15.89 14.4803 16.5622 13.8353 16.5622 13.8353C16.404 12.8418 15.8378 12.3574 15.7197 12.2659C15.7197 12.2659 15.7149 12.2618 15.7076 12.257C15.7012 12.2522 15.6964 12.249 15.6964 12.249C15.6908 12.245 15.6835 12.2402 15.6755 12.2353C15.6811 12.1751 15.6867 12.1157 15.69 12.0562C15.6972 11.9494 15.6996 11.8418 15.7004 11.7357L15.6996 11.6562L15.6988 11.6161V11.596C15.6988 11.5687 15.698 11.5791 15.698 11.5687L15.6948 11.502L15.69 11.412C15.6884 11.3807 15.6859 11.3542 15.6835 11.3261C15.6811 11.2988 15.6787 11.2707 15.6755 11.2434L15.6659 11.1606L15.6546 11.0787C15.6386 10.9695 15.6177 10.861 15.5928 10.7542C15.4932 10.3261 15.3261 9.91968 15.1052 9.55422C14.8843 9.18875 14.6096 8.86506 14.3004 8.59277C13.9912 8.31968 13.6442 8.1004 13.2803 7.93655C12.9165 7.77269 12.5341 7.66747 12.1534 7.61928C11.9631 7.59438 11.7735 7.58474 11.5855 7.58715L11.5157 7.58875L11.498 7.58956C11.4932 7.58956 11.4715 7.59036 11.4739 7.59036L11.445 7.59197L11.3751 7.59679C11.3486 7.59839 11.3213 7.6008 11.298 7.60321C11.2016 7.61285 11.106 7.6257 11.0112 7.64337C10.6337 7.71406 10.2771 7.8506 9.96305 8.03855C9.649 8.22651 9.3759 8.46185 9.15341 8.72851C8.93173 8.99438 8.75904 9.28916 8.64016 9.59438C8.52129 9.8996 8.45462 10.2145 8.43614 10.5205C8.43132 10.5968 8.42972 10.6731 8.43132 10.7486C8.43132 10.7671 8.43213 10.7863 8.43293 10.8048L8.43534 10.8659C8.43775 10.9028 8.44096 10.939 8.44418 10.9751C8.45944 11.1301 8.48755 11.2787 8.52932 11.4225C8.61205 11.7092 8.74538 11.9687 8.90924 12.1888C9.07309 12.4096 9.26908 12.592 9.47711 12.7341C9.68514 12.8763 9.90763 12.9783 10.1277 13.0434C10.3486 13.1084 10.5679 13.1365 10.7743 13.1357C10.8 13.1357 10.8257 13.1349 10.8514 13.1341C10.8651 13.1341 10.8787 13.1325 10.8924 13.1325L10.9333 13.1301C10.955 13.1277 10.9775 13.1261 10.9992 13.1237C11.004 13.1237 11.0112 13.1221 11.0177 13.1213L11.0378 13.1189C11.0514 13.1173 11.0643 13.1149 11.0779 13.1133C11.1052 13.11 11.1285 13.1044 11.1526 13.1004C11.1767 13.0956 11.2008 13.0908 11.2249 13.0843C11.2723 13.0739 11.3181 13.0594 11.3639 13.0458C11.4538 13.0161 11.5382 12.9799 11.6169 12.9398C11.6956 12.8996 11.7679 12.8538 11.8353 12.8064C11.8546 12.7928 11.8731 12.7783 11.8916 12.7639C11.9639 12.7076 11.9751 12.6016 11.9173 12.5309C11.8667 12.4691 11.7799 12.453 11.7108 12.4916C11.694 12.5012 11.6763 12.51 11.6586 12.5189C11.5984 12.5478 11.5357 12.5751 11.4691 12.5968C11.4024 12.6177 11.3333 12.6353 11.261 12.6482C11.2249 12.653 11.1888 12.6586 11.1518 12.6618C11.1333 12.6643 11.1149 12.6651 11.0956 12.6651C11.0771 12.6659 11.057 12.6675 11.0402 12.6667C11.0225 12.6667 11.0048 12.6659 10.9863 12.6659C10.9639 12.6651 10.9414 12.6635 10.9189 12.6627C10.9189 12.6627 10.9076 12.6627 10.9165 12.6618L10.9092 12.661L10.894 12.6594C10.8835 12.6586 10.8739 12.6578 10.8635 12.6562C10.8434 12.6538 10.8233 12.6514 10.8032 12.6482C10.6418 12.6257 10.4779 12.5783 10.3205 12.5068C10.1622 12.4353 10.0112 12.3373 9.8747 12.2145C9.73815 12.0924 9.61928 11.9446 9.5261 11.7775C9.43293 11.6112 9.36787 11.4257 9.33735 11.2313C9.32209 11.1341 9.31566 11.0337 9.31807 10.9357C9.31968 10.9084 9.32048 10.8819 9.32209 10.8546C9.32209 10.8618 9.32289 10.8506 9.32289 10.8498L9.32369 10.8402L9.3253 10.8201C9.3261 10.8064 9.32771 10.7936 9.32932 10.7799C9.33494 10.7269 9.34297 10.6731 9.35261 10.6209C9.42731 10.1976 9.63936 9.78474 9.96707 9.47068C10.049 9.39277 10.1373 9.31968 10.2313 9.25542C10.3253 9.19116 10.4257 9.13333 10.5301 9.08514C10.6345 9.03695 10.7438 8.99759 10.8554 8.96707C10.9671 8.93735 11.0819 8.91727 11.1984 8.90683C11.2566 8.902 11.3151 8.89958 11.3735 8.8996C11.3888 8.8996 11.4008 8.9004 11.4129 8.9004L11.4602 8.90201L11.49 8.90281C11.502 8.90281 11.49 8.90281 11.4956 8.90361L11.5076 8.90442L11.555 8.90763C11.6811 8.91807 11.8072 8.93574 11.9309 8.96386C12.1791 9.01928 12.4201 9.11004 12.645 9.23454C13.0948 9.48353 13.4779 9.87309 13.7133 10.343C13.8321 10.5767 13.9141 10.8289 13.9558 11.0892C13.9655 11.1542 13.9735 11.2201 13.9791 11.2859L13.9831 11.3357L13.9855 11.3855C13.9863 11.4024 13.9863 11.4185 13.9871 11.4353C13.9871 11.4514 13.988 11.4699 13.988 11.4819V11.5245L13.9871 11.5727C13.9855 11.6048 13.9831 11.657 13.9815 11.6892C13.9759 11.7606 13.9703 11.8329 13.9606 11.9044C13.9518 11.9751 13.9398 12.0458 13.9269 12.1165C13.9124 12.1863 13.898 12.2562 13.8795 12.3253C13.845 12.4643 13.8 12.6 13.7478 12.7333C13.6426 13 13.502 13.253 13.3325 13.4867C12.9928 13.9534 12.5293 14.3349 12.0024 14.5743C11.739 14.6932 11.461 14.7807 11.1751 14.8281C11.0321 14.8522 10.8875 14.8667 10.743 14.8715L10.7165 14.8723H10.6932L10.6466 14.8731H10.5398C10.5598 14.8731 10.5365 14.8731 10.5373 14.8723L10.5229 14.8715C10.445 14.8699 10.3679 14.8659 10.2908 14.8602C9.98153 14.8369 9.6755 14.7823 9.37912 14.6956C9.08273 14.6096 8.79518 14.4948 8.52289 14.3502C7.97912 14.0594 7.49317 13.661 7.11245 13.1807C6.92128 12.9414 6.75422 12.6843 6.61606 12.4137C6.47791 12.143 6.36948 11.8594 6.28916 11.5695C6.20964 11.2795 6.15984 10.9823 6.14056 10.6835L6.13735 10.6273L6.13655 10.6137V10.6016L6.13574 10.5767L6.13414 10.5277L6.13333 10.5157V10.4643L6.13253 10.3944V10.3486C6.13253 10.3124 6.13414 10.2755 6.13494 10.2394C6.14056 10.0916 6.15261 9.93976 6.17189 9.78795C6.19116 9.63614 6.21606 9.48353 6.24739 9.33173C6.27871 9.18072 6.31566 9.03052 6.35743 8.88353C6.44177 8.58875 6.54699 8.30281 6.67149 8.03293C6.92128 7.49237 7.249 7.01606 7.64257 6.63213C7.74056 6.53574 7.84257 6.44498 7.94859 6.35984C8.05462 6.2747 8.16466 6.19598 8.27791 6.12209C8.39036 6.04739 8.50683 5.97992 8.62651 5.91727C8.68594 5.88514 8.74699 5.85703 8.80803 5.82731C8.83855 5.81365 8.86988 5.8 8.9004 5.78635C8.93092 5.77269 8.96225 5.75904 8.99357 5.74699C9.11807 5.69398 9.24659 5.6498 9.3751 5.60803C9.40803 5.59839 9.44016 5.58795 9.47229 5.57831C9.50442 5.56787 9.53815 5.56064 9.57028 5.551C9.63534 5.53253 9.70201 5.51727 9.76787 5.5004C9.8008 5.49157 9.83454 5.48594 9.86747 5.47871C9.9012 5.47149 9.93414 5.46426 9.96787 5.45783C10.0016 5.45141 10.0353 5.44578 10.0683 5.43936L10.1189 5.43052L10.1695 5.42249C10.2032 5.41767 10.2369 5.41205 10.2707 5.40723C10.3084 5.4008 10.347 5.39759 10.3847 5.39197C10.4161 5.38795 10.4667 5.38233 10.498 5.37831C10.5221 5.3759 10.5454 5.37349 10.5695 5.37108L10.6169 5.36626L10.641 5.36386L10.6691 5.36225C10.7076 5.35984 10.7454 5.35743 10.7839 5.35502L10.841 5.351C10.841 5.351 10.8618 5.3502 10.8434 5.3502L10.8554 5.3494L10.8795 5.34859C10.9124 5.34699 10.9446 5.34538 10.9775 5.34377C11.1076 5.33976 11.2369 5.33976 11.3647 5.34377C11.6209 5.35422 11.8723 5.38233 12.1165 5.42731C12.6056 5.51807 13.0659 5.6755 13.4819 5.88112C13.8988 6.08514 14.2723 6.33574 14.5968 6.60803C14.6169 6.6249 14.6369 6.64257 14.657 6.65944C14.6771 6.67711 14.6964 6.69398 14.7157 6.71165C14.755 6.74618 14.7928 6.78233 14.8305 6.81687C14.8683 6.85221 14.9044 6.88835 14.9414 6.92369C14.9767 6.95984 15.0128 6.99518 15.0474 7.03213C15.1847 7.17751 15.3124 7.3253 15.4273 7.4739C15.6578 7.77028 15.8418 8.06908 15.9888 8.35181C15.9984 8.36948 16.0072 8.38715 16.0161 8.40482C16.0249 8.42249 16.0337 8.44016 16.0418 8.45783C16.0586 8.49237 16.0763 8.52691 16.0916 8.56145C16.1076 8.59598 16.1237 8.62972 16.139 8.66345C16.1534 8.69719 16.1679 8.73092 16.1823 8.76305C16.2369 8.89558 16.2867 9.02088 16.3277 9.14056C16.3952 9.33253 16.4442 9.50602 16.4827 9.65622C16.498 9.71647 16.555 9.75663 16.6169 9.751C16.6811 9.74538 16.7301 9.69237 16.7317 9.62811C16.7349 9.46667 16.7309 9.2763 16.7124 9.05944C16.6884 8.79116 16.6426 8.48032 16.5518 8.13896C16.4626 7.79759 16.3301 7.4241 16.1374 7.03614C15.9438 6.649 15.6916 6.24578 15.3639 5.85622C15.2361 5.70361 15.0964 5.55261 14.9454 5.40562C15.1703 4.51084 14.6715 3.73494 14.6715 3.73494C13.8104 3.68112 13.2626 4.00241 13.0594 4.1494C13.0257 4.13494 12.9912 4.12048 12.9566 4.10602C12.8096 4.04659 12.6594 3.99116 12.5044 3.94217C12.3494 3.89317 12.1912 3.84819 12.0297 3.81044C11.8675 3.77269 11.7028 3.74056 11.5349 3.71486C11.5052 3.71084 11.4763 3.70683 11.4466 3.70201C11.0723 2.50201 9.99357 2 9.99357 2C8.79036 2.75904 8.56145 3.82651 8.56145 3.82651Z" fill="white"/>
</mask>
<g mask="url(#mask0_377_1014)">
<path d="M1.99976 1.9968H16.7339V17.9992H1.99976V1.9968Z" fill="url(#paint0_linear_377_1014)"/>
</g>
<defs>
<linearGradient id="paint0_linear_377_1014" x1="9.36511" y1="21.5983" x2="9.36511" y2="6.97911" gradientUnits="userSpaceOnUse">
<stop stop-color="#FFF200"/>
<stop offset="1" stop-color="#F15A29"/>
</linearGradient>
</defs>
</svg>
