<svg width="20" height="20" viewBox="0 0 20 20" fill="none" xmlns="http://www.w3.org/2000/svg">
<path d="M17.476 9.558L10.5813 2.66267L9.91795 2L4.74662 7.17133L2.38195 9.536C2.13928 9.77867 2.13928 10.1767 2.38195 10.442L7.11128 15.1713L9.91795 18L15.0893 12.8287L15.1779 12.74L17.476 10.442C17.5928 10.3246 17.6584 10.1657 17.6584 10C17.6584 9.83435 17.5928 9.67543 17.476 9.558ZM9.91795 12.3647L7.55328 10L9.91795 7.63533L12.2826 10L9.91795 12.3647Z" fill="#2684FF"/>
<path d="M9.91745 7.63534C8.37079 6.08867 8.37079 3.56867 9.89545 2.022L4.72412 7.19334L7.53079 10L9.91745 7.63534Z" fill="url(#paint0_linear_377_1011)"/>
<path d="M12.2821 10L9.91748 12.3647C11.4641 13.9113 11.4641 16.4313 9.91748 18L15.1108 12.8067L12.2821 10Z" fill="url(#paint1_linear_377_1011)"/>
<defs>
<linearGradient id="paint0_linear_377_1011" x1="9.49612" y1="5.24" x2="6.19345" y2="8.542" gradientUnits="userSpaceOnUse">
<stop offset="0.176" stop-color="#0052CC"/>
<stop offset="1" stop-color="#2684FF"/>
</linearGradient>
<linearGradient id="paint1_linear_377_1011" x1="10.3701" y1="14.726" x2="13.6661" y2="11.4307" gradientUnits="userSpaceOnUse">
<stop offset="0.176" stop-color="#0052CC"/>
<stop offset="1" stop-color="#2684FF"/>
</linearGradient>
</defs>
</svg>
