<svg width="20" height="20" viewBox="0 0 20 20" fill="none" xmlns="http://www.w3.org/2000/svg">
<path fill-rule="evenodd" clip-rule="evenodd" d="M18 2.41276C18 2.18466 17.8153 2 17.5872 2H2.41276C2.18466 2 2 2.18466 2 2.41276V17.5872C2 17.8153 2.18466 18 2.41276 18H17.5872C17.8153 18 18 17.8153 18 17.5872V2.41276ZM9.32156 9.54634L7.95293 13.0168C7.93661 13.0602 7.89861 13.0874 7.8497 13.0874H7.03507C6.99159 13.0874 6.94816 13.0602 6.93188 13.0168L5.56866 9.58977V12.9788C5.56866 13.0385 5.51979 13.0874 5.46004 13.0874H4.55305C4.49331 13.0874 4.44443 13.0385 4.44443 12.9788V7.85727C4.44443 7.79752 4.49331 7.74865 4.55305 7.74865H5.92168C5.96513 7.74865 6.00315 7.7758 6.02487 7.8138L7.46412 11.3549L8.83275 7.81924C8.84903 7.7758 8.88707 7.74865 8.93594 7.74865H10.386C10.4458 7.74865 10.4947 7.79752 10.4947 7.85727V12.9788C10.4947 13.0385 10.4458 13.0874 10.386 13.0874H9.43558C9.37587 13.0874 9.32696 13.0385 9.32696 12.9788L9.32156 9.54634ZM16.2732 12.5933C16.4795 12.4032 16.6479 12.1968 16.7565 11.9742C16.8271 11.8518 16.8937 11.6641 16.942 11.5279C16.9494 11.5069 16.9564 11.4872 16.9629 11.4691C16.9846 11.4147 16.9521 11.3496 16.8923 11.3333L16.0233 11.0835C15.969 11.0672 15.9093 11.0943 15.893 11.1486C15.8658 11.2247 15.8278 11.3062 15.7789 11.3985C15.7138 11.5234 15.6269 11.6429 15.502 11.7569C15.3879 11.8656 15.2359 11.9579 15.0566 12.0339C14.8719 12.11 14.6547 12.1425 14.4103 12.1425C14.1931 12.1425 13.9812 12.1045 13.7858 12.0285C13.5848 11.9524 13.411 11.8384 13.2535 11.6972C13.1014 11.5505 12.982 11.3713 12.8896 11.1595C12.7973 10.9531 12.7538 10.7142 12.7538 10.4426C12.7538 10.1385 12.7973 9.88321 12.895 9.65508C12.9928 9.427 13.1177 9.24775 13.2752 9.10657C13.4327 8.95991 13.6119 8.85129 13.8075 8.77526C13.9976 8.69923 14.1931 8.67207 14.3886 8.67207C14.6493 8.67207 14.8611 8.71007 15.0349 8.7861C15.2141 8.85673 15.3608 8.94903 15.4748 9.06309C15.5943 9.17172 15.6757 9.28578 15.7355 9.41068C15.7789 9.49759 15.8115 9.57362 15.8387 9.64421C15.8604 9.69852 15.9202 9.72567 15.9745 9.7094L16.838 9.4324C16.8923 9.41068 16.9249 9.35093 16.9086 9.29662C16.8597 9.13912 16.7945 8.96535 16.6914 8.79153C16.5773 8.57429 16.4198 8.3788 16.2134 8.19415C16.0016 8.00405 15.7409 7.8574 15.4477 7.73794C15.1435 7.61843 14.7905 7.55868 14.3777 7.55868C14.003 7.55868 13.6391 7.62931 13.2915 7.76509C12.9494 7.90627 12.6561 8.1018 12.3954 8.35164C12.1401 8.60144 11.9392 8.90016 11.7817 9.25863C11.6676 9.51387 11.6024 9.79086 11.5753 10.0896C11.5536 10.1982 11.5536 10.3123 11.5536 10.4263C11.5536 10.5295 11.559 10.6327 11.5698 10.7359C11.597 11.04 11.673 11.3333 11.7817 11.594C11.9338 11.9416 12.1292 12.2457 12.3845 12.4901C12.6398 12.7399 12.9385 12.9355 13.2861 13.0712C13.6283 13.2016 13.9976 13.2722 14.394 13.2722H14.4049C14.8285 13.2722 15.1924 13.2016 15.502 13.0767C15.8115 12.9409 16.0614 12.7834 16.2732 12.5933Z" fill="#0073B4"/>
</svg>
