<svg version="1.0" xmlns="http://www.w3.org/2000/svg"
    viewBox="0 0 512.000000 512.000000"
    preserveAspectRatio="xMidYMid meet">

    <g transform="translate(0.000000,512.000000) scale(0.100000,-0.100000)"
        fill="#000000" stroke="none">
        <path
            d="M1428 5081 c-169 -58 -259 -73 -435 -76 -144 -2 -154 -4 -197 -29
-28 -16 -55 -43 -70 -69 -24 -42 -24 -43 -30 -437 -3 -217 -11 -472 -18 -566
-24 -347 40 -610 210 -862 87 -130 102 -164 102 -237 0 -94 -46 -177 -171
-312 -127 -137 -144 -202 -130 -495 6 -112 13 -293 16 -403 8 -228 13 -260 60
-332 40 -60 94 -100 186 -136 204 -81 425 -87 644 -16 153 48 199 129 145 254
-47 109 -45 237 5 355 14 32 29 78 34 102 6 24 15 280 21 568 11 541 17 605
56 666 35 53 127 71 186 37 19 -12 62 -71 123 -168 96 -154 220 -321 380 -510
151 -179 248 -324 407 -605 107 -190 253 -406 317 -470 111 -112 220 -164 427
-204 210 -41 369 -59 519 -60 135 -1 142 0 193 27 71 37 123 86 154 144 58
107 82 370 53 583 -22 163 -31 578 -16 731 6 63 16 157 22 209 13 124 13 472
-1 730 -6 113 -11 375 -10 582 0 385 -4 454 -42 603 -37 151 -116 251 -245
312 -70 34 -78 35 -285 50 -280 21 -299 20 -375 -17 -67 -33 -121 -89 -149
-156 -24 -55 -26 -126 -29 -869 -3 -854 -11 -925 -112 -933 -92 -7 -179 96
-624 738 -189 273 -357 515 -373 539 -45 65 -112 118 -206 164 -94 45 -162
102 -190 158 -11 20 -38 83 -60 139 -77 192 -112 240 -209 283 -81 36 -150 33
-283 -12z" />
        <path
            d="M2720 530 c-509 -58 -1044 -63 -1525 -14 -173 18 -275 19 -343 3
-170 -41 -372 -211 -372 -315 0 -31 7 -44 42 -77 23 -22 67 -52 97 -66 l56
-26 395 -6 c217 -4 469 -12 560 -19 199 -15 629 -7 865 16 91 9 317 18 525 21
306 5 436 2 803 -18 495 -26 527 -24 654 37 81 39 117 77 131 142 25 109 -40
197 -165 226 -83 18 -280 38 -658 66 -154 12 -340 28 -413 35 -175 19 -458 17
-652 -5z" />
    </g>
</svg>