<svg width="20" height="20" viewBox="0 0 20 20" fill="none" xmlns="http://www.w3.org/2000/svg">
<path d="M10.0034 9.97068C11.0604 9.97068 12.074 9.5508 12.8214 8.80341C13.5688 8.05601 13.9887 7.04233 13.9887 5.98536C13.9887 4.92838 13.5688 3.9147 12.8214 3.16731C12.074 2.41991 11.0604 2.00003 10.0034 2.00003C8.94642 2.00003 7.93273 2.41991 7.18534 3.16731C6.43795 3.9147 6.01807 4.92838 6.01807 5.98536C6.01807 7.04233 6.43795 8.05601 7.18534 8.80341C7.93273 9.5508 8.94642 9.97068 10.0034 9.97068Z" fill="url(#paint0_linear_377_1001)"/>
<path d="M9.66656 17.896C7.06077 16.2352 4.89487 13.9694 3.35324 11.2914C3.24124 11.0674 3.30858 10.7987 3.53191 10.6867H3.55458L6.57724 9.20936C6.77857 9.09736 7.04724 9.18669 7.15924 9.38869C8.68485 11.9523 10.9477 13.9965 13.6526 15.2547C12.6588 16.2635 11.5545 17.1572 10.3606 17.9187C10.1372 18.0307 9.8679 18.0307 9.66656 17.896Z" fill="url(#paint1_linear_377_1001)"/>
<path d="M10.3393 17.896C12.9451 16.2352 15.111 13.9694 16.6527 11.2914C16.7653 11.0674 16.698 10.7987 16.474 10.6867H16.4513L13.4287 9.20936C13.2273 9.09736 12.9587 9.18669 12.8467 9.38869C11.3213 11.9522 9.05864 13.9964 6.354 15.2547C7.34753 16.2635 8.45161 17.1572 9.64533 17.9187C9.86933 18.0307 10.138 18.0307 10.3393 17.896Z" fill="#2684FF"/>
<defs>
<linearGradient id="paint0_linear_377_1001" x1="10.0054" y1="3.31936" x2="10.0054" y2="11.514" gradientUnits="userSpaceOnUse">
<stop stop-color="#2684FF"/>
<stop offset="0.82" stop-color="#0052CC"/>
</linearGradient>
<linearGradient id="paint1_linear_377_1001" x1="7.54523" y1="11.2847" x2="10.2906" y2="17.03" gradientUnits="userSpaceOnUse">
<stop stop-color="#2684FF"/>
<stop offset="0.62" stop-color="#0052CC"/>
</linearGradient>
</defs>
</svg>
