<svg width="20" height="20" viewBox="0 0 20 20" fill="none" xmlns="http://www.w3.org/2000/svg">
<path d="M2 2H18V18H2V2Z" fill="#06AC38"/>
<mask id="mask0_377_993" style="mask-type:luminance" maskUnits="userSpaceOnUse" x="7" y="5" width="6" height="10">
<path d="M7.0011 5.71506H13V14.285H7.0011V5.71506Z" fill="white"/>
</mask>
<g mask="url(#mask0_377_993)">
<path d="M8.27946 12.0027H7.0011V14.2847H8.27946V12.0027ZM11.8012 6.13615C11.1198 5.77378 10.6422 5.71497 9.52309 5.71497H7.0011V10.9108H9.51307C10.5079 10.9108 11.2541 10.852 11.9107 10.4211C12.6269 9.95581 13 9.17721 13 8.2761C13 7.30653 12.5424 6.52784 11.8012 6.13615ZM9.80662 9.82365H8.27946V6.82662L9.722 6.81678C11.0352 6.80704 11.6918 7.25755 11.6918 8.29081C11.6918 9.40246 10.876 9.82365 9.80662 9.82365Z" fill="white"/>
</g>
</svg>
