<svg width="20" height="20" viewBox="0 0 20 20" fill="none" xmlns="http://www.w3.org/2000/svg">
<path fill-rule="evenodd" clip-rule="evenodd" d="M9.61728 9.55914L9.75494 9.5172C10.7811 9.18287 11.7876 8.78139 12.7692 8.31496C13.765 7.88996 14.6992 7.31124 15.5432 6.59662C16.4395 5.82083 17.1139 4.78358 17.4876 3.60629C17.568 3.41241 17.6272 3.20884 17.6636 3C16.3152 5.00409 10.969 5.21293 10.969 5.21293L12.2312 3.95484C8.55772 3.96876 4.9803 5.23129 2 7.56558C4.01946 7.80112 5.91872 8.72459 7.42627 10.204C8.15021 9.95996 8.89005 9.78568 9.61709 9.5661V9.55914H9.61728ZM18 9.36042C14.5984 9.189 11.1952 9.66075 7.94198 10.7546C8.62543 11.5306 9.19574 12.4156 9.63318 13.3789C12.3271 11.7478 16.0622 9.66367 18 9.36737V9.36042ZM9.97286 14.212C10.2924 15.1066 10.4972 16.0447 10.5814 17L15.2805 11.7478L9.97286 14.212ZM12.4392 16.7876V16.7317C12.4384 16.7092 12.4317 16.6875 12.42 16.6689C12.4147 16.6603 12.4076 16.6533 12.3992 16.6485C12.3908 16.6436 12.3814 16.6411 12.3719 16.6411H12.4136C12.4261 16.632 12.4363 16.6195 12.443 16.6048C12.4497 16.5902 12.4528 16.5738 12.452 16.5575C12.4541 16.5356 12.4497 16.5136 12.4393 16.4947C12.4289 16.4759 12.4131 16.4612 12.3944 16.4529C12.3616 16.4461 12.3279 16.4461 12.2951 16.4529H12.1637V16.8468H12.2343V16.7037H12.2854C12.3075 16.6978 12.3306 16.6978 12.3527 16.7037C12.3746 16.7229 12.3857 16.7534 12.3816 16.7838V16.843H12.452L12.4392 16.7876ZM12.231 16.4807H12.2759C12.3002 16.4746 12.3254 16.4746 12.3496 16.4807C12.3636 16.4921 12.3709 16.5107 12.3688 16.5296C12.3701 16.5415 12.3677 16.5535 12.3618 16.5636C12.356 16.5737 12.3472 16.5814 12.3368 16.5853C12.3177 16.5886 12.2982 16.5886 12.279 16.5853H12.231V16.4529V16.4807Z" fill="#FF6200"/>
</svg>
