<svg width="20" height="20" viewBox="0 0 20 20" fill="none" xmlns="http://www.w3.org/2000/svg">
<path d="M10.0001 2C5.58194 2 2 5.5815 2 9.99981C2 14.4179 5.58194 17.9997 10.0001 17.9997C14.4182 17.9997 18 14.4179 18 9.99981C18 5.58144 14.4181 2 10.0001 2ZM10.0001 16.9725C8.74306 16.9725 7.72388 16.1328 7.72388 15.0972H12.2762C12.2762 16.1326 11.2571 16.9725 10.0001 16.9725ZM13.7596 14.4762H6.24013V13.1127H13.7598V14.4762H13.7596V14.4762ZM13.7326 12.4109H6.26156C6.23669 12.3823 6.21131 12.3541 6.18731 12.325C5.41763 11.3904 5.23631 10.9025 5.06031 10.4052C5.05731 10.3889 5.99363 10.5965 6.65756 10.7459C6.65756 10.7459 6.99919 10.8249 7.49869 10.916C7.01912 10.3539 6.73431 9.63925 6.73431 8.90875C6.73431 7.30513 7.96431 5.90381 7.52056 4.77119C7.95244 4.80631 8.41431 5.68263 8.44556 7.05275C8.90469 6.41825 9.09681 5.25963 9.09681 4.54925C9.09681 3.81369 9.5815 2.95925 10.0663 2.93006C9.63413 3.64231 10.1782 4.25288 10.6619 5.76756C10.8433 6.3365 10.8202 7.294 10.9602 7.90119C11.0067 6.64006 11.2235 4.79994 12.0236 4.16469C11.6706 4.96469 12.0758 5.96581 12.3529 6.44706C12.8001 7.22356 13.0711 7.81181 13.0711 8.92444C13.0711 9.67044 12.7956 10.3727 12.3311 10.9218C12.8593 10.8227 13.2241 10.7333 13.2241 10.7333L14.9397 10.3986C14.9399 10.3985 14.6906 11.4237 13.7326 12.4109Z" fill="#DA4E31"/>
</svg>
