<svg width="20" height="20" viewBox="0 0 20 20" fill="none" xmlns="http://www.w3.org/2000/svg">
<path d="M15.7637 9.48476L15.7708 9.52317C15.7906 9.62044 15.8759 9.69456 15.9788 9.69456L17.2224 9.69468C17.338 9.69245 17.4301 9.59554 17.4301 9.47939C17.3447 8.86335 17.1826 8.26039 16.9477 7.68455L17.6034 7.1494C17.6941 7.07535 17.7184 6.93303 17.6574 6.83311L16.9568 5.68533C16.8958 5.58541 16.7582 5.54199 16.6509 5.58884L15.7397 5.98655C15.3875 5.53011 14.9824 5.11709 14.5328 4.75616L14.904 3.84568C14.9482 3.73725 14.9014 3.60072 14.8001 3.54217L13.6355 2.86977C13.5342 2.81128 13.3925 2.83902 13.3207 2.93146L12.7278 3.69534C12.1916 3.47736 11.631 3.32495 11.0582 3.24143L10.9171 2.21197C10.9011 2.09607 10.7923 2 10.6752 2H9.33056C9.21351 2 9.10472 2.09607 9.08874 2.21197L8.94805 3.23727C8.37502 3.31868 7.81391 3.46896 7.27689 3.68485L6.68151 2.91777C6.60974 2.82533 6.46803 2.79765 6.36672 2.85614L5.20212 3.52854C5.1008 3.58703 5.05395 3.72368 5.09815 3.83211L5.46836 4.73994C5.01762 5.09912 4.6111 5.51052 4.25732 5.96551L3.33858 5.57262C3.23094 5.52661 3.09363 5.57111 3.03344 5.67146L2.34133 6.82442C2.28102 6.92483 2.30647 7.06691 2.39765 7.14024L3.04291 7.6588C2.80218 8.24184 2.63646 8.85309 2.54974 9.47788C2.5495 9.59542 2.64207 9.69245 2.75767 9.69468H3.97341C4.11965 9.68985 4.20679 9.60193 4.21258 9.49284C4.70249 6.74404 7.10955 4.66088 9.99036 4.66088C12.8754 4.66088 15.277 6.7438 15.7637 9.48476ZM4.21758 11.4943C4.19859 11.3969 4.11368 11.3254 4.01026 11.3254C4.00091 11.3254 3.99488 11.3258 3.98228 11.3259L3.98209 11.326H2.76678C2.71115 11.327 2.65813 11.3498 2.61915 11.3895C2.58017 11.4292 2.55834 11.4827 2.55836 11.5383L2.55843 11.539C3.06414 15.1894 6.19599 18 9.98541 18H9.98529C13.7748 18 16.9066 15.1894 17.4123 11.539L17.4122 11.539L17.4125 11.5378C17.4126 11.4823 17.3909 11.4289 17.352 11.3893C17.3131 11.3497 17.2602 11.327 17.2047 11.3261H15.9884C15.9794 11.3249 15.9705 11.3233 15.9612 11.3233C15.9068 11.3233 15.8544 11.3443 15.815 11.3818C15.7756 11.4194 15.7522 11.4706 15.7494 11.5249C15.7487 11.5269 15.7466 11.5279 15.7463 11.5299C15.2595 14.2708 12.866 16.3511 9.98529 16.3511H9.98541C7.10466 16.3511 4.71118 14.2708 4.2244 11.5299L4.21758 11.4943Z" fill="#0A0B09"/>
<path d="M12.65 10.5161C12.65 9.05973 11.465 7.87897 10.0032 7.87897C8.54131 7.87897 7.35645 9.05973 7.35645 10.5161C7.35645 11.9726 8.54131 13.1532 10.0032 13.1532C11.465 13.1532 12.65 11.9726 12.65 10.5161Z" fill="#3E64A0"/>
</svg>
