<svg width="20" height="20" viewBox="0 0 20 20" fill="none" xmlns="http://www.w3.org/2000/svg">
<path d="M11.273 3.2239C11.1399 3.00304 10.952 2.82032 10.7275 2.69349C10.503 2.56665 10.2495 2.5 9.99165 2.5C9.73379 2.5 9.48031 2.56665 9.2558 2.69349C9.0313 2.82032 8.84339 3.00304 8.71031 3.2239L6.60252 6.83406C8.21278 7.638 9.58475 8.84916 10.5822 10.3473C11.5796 11.8454 12.1679 13.5784 12.2884 15.3742H10.8085C10.6881 13.8349 10.1679 12.3537 9.2993 11.0772C8.4307 9.80067 7.24383 8.77311 5.85614 8.09617L3.90531 11.4693C4.68543 11.8192 5.36506 12.3596 5.88171 13.0408C6.39837 13.722 6.73546 14.5222 6.86199 15.3677H3.46325C3.42294 15.3649 3.38397 15.3521 3.34987 15.3304C3.31576 15.3087 3.28758 15.2789 3.26788 15.2436C3.24817 15.2083 3.23756 15.1687 3.23699 15.1283C3.23643 15.0879 3.24593 15.048 3.26464 15.0122L4.20642 13.4105C3.88735 13.1443 3.52269 12.9381 3.1301 12.8019L2.19793 14.4035C2.10089 14.57 2.03789 14.7541 2.01259 14.9451C1.98729 15.1361 2.0002 15.3302 2.05057 15.5162C2.10094 15.7022 2.18776 15.8763 2.30599 16.0284C2.42423 16.1806 2.57151 16.3077 2.73929 16.4024C2.96035 16.527 3.20952 16.5931 3.46325 16.5946H8.11769C8.20414 15.5279 8.01365 14.457 7.56468 13.4855C7.11571 12.5141 6.42348 11.675 5.55503 11.0497L6.295 9.76832C7.391 10.5211 8.27177 11.5466 8.85038 12.7437C9.42899 13.9408 9.68544 15.2681 9.59443 16.5946H13.5377C13.6296 14.5852 13.1924 12.5868 12.27 10.7992C11.3475 9.01165 9.97205 7.49747 8.28106 6.40802L9.77702 3.84535C9.81036 3.7895 9.8644 3.74907 9.9274 3.73287C9.99039 3.71668 10.0572 3.72601 10.1134 3.75886C10.2831 3.85175 16.6129 14.8969 16.7315 15.025C16.7523 15.0624 16.763 15.1047 16.7623 15.1476C16.7616 15.1904 16.7495 15.2324 16.7274 15.2691C16.7053 15.3058 16.6739 15.3361 16.6364 15.3568C16.5988 15.3775 16.5565 15.3879 16.5136 15.387H14.9888C15.0081 15.7949 15.0081 16.2017 14.9888 16.6074H16.52C16.7145 16.6087 16.9072 16.5714 17.0872 16.4977C17.2671 16.424 17.4306 16.3153 17.5682 16.1779C17.7059 16.0406 17.8149 15.8773 17.889 15.6976C17.9631 15.5178 18.0008 15.3251 18 15.1307C18.0002 14.8739 17.9316 14.6217 17.8014 14.4003L11.273 3.2239Z" fill="black"/>
</svg>
