<svg width="20" height="20" viewBox="0 0 20 20" fill="none" xmlns="http://www.w3.org/2000/svg">
<path d="M9.13982 9.62714C9.18374 9.61545 9.2263 9.60376 9.27007 9.59117C10.2316 9.32123 11.1669 8.94724 12.0963 8.55991C13.0062 8.18079 13.9062 7.72544 14.6968 7.08468C15.5082 6.4274 16.1608 5.57597 16.5211 4.52012C16.5718 4.37316 16.6755 4.16121 16.6854 4C15.422 5.72029 10.4101 5.89786 10.4101 5.89786L11.5928 4.81743C6.83808 4.8264 3.52013 6.836 2 7.91077C3.94539 8.11858 5.70648 8.9391 7.08524 10.1746C7.76364 9.96539 8.45612 9.81429 9.13982 9.62714Z" fill="#FF6200"/>
<path d="M17.0002 9.45821C17.0002 9.45821 12.3756 9.10601 7.57178 10.6463C8.20914 11.3093 8.74631 12.0677 9.15794 12.8992C11.6838 11.4992 15.1861 9.71065 17.0002 9.45821Z" fill="#FF6200"/>
<path d="M9.47412 13.6179C9.7674 14.3689 9.96412 15.1678 10.0458 16L14.4481 11.4915L9.47412 13.6179Z" fill="#FF6200"/>
</svg>
