<svg width="20" height="20" viewBox="0 0 20 20" fill="none" xmlns="http://www.w3.org/2000/svg">
<path d="M9.66954 8.30131L11.5274 8.91631L13.7788 3.14382C13.834 2.97018 13.8338 2.78366 13.7782 2.61012C13.7227 2.43659 13.6145 2.28465 13.4687 2.17538C13.3229 2.0661 13.1467 2.00491 12.9645 2.00028C12.7824 1.99566 12.6033 2.04783 12.4521 2.14957L4.88846 8.27569C4.75204 8.3673 4.64406 8.49536 4.57683 8.64531C4.5096 8.79526 4.48581 8.96106 4.50816 9.12387C4.53052 9.28667 4.59812 9.43993 4.70328 9.5662C4.80845 9.69247 4.94694 9.78669 5.10301 9.83814L7.94378 10.7756L8.56447 8.87089C8.59948 8.76083 8.65587 8.65877 8.7304 8.57054C8.80493 8.48232 8.89614 8.40967 8.9988 8.35676C9.10145 8.30384 9.21354 8.27171 9.32864 8.2622C9.44374 8.25268 9.55959 8.26597 9.66954 8.30131Z" fill="#5AF1C8"/>
<path d="M14.2522 9.8169L11.5279 8.91632L10.7993 10.7841C10.7641 10.8949 10.7074 10.9975 10.6323 11.0862C10.5572 11.1748 10.4653 11.2477 10.3618 11.3005C10.2584 11.3534 10.1455 11.3851 10.0297 11.394C9.91383 11.4029 9.79739 11.3887 9.68709 11.3523L7.93287 10.7728L7.86044 11.0072L5.95283 16.8549C5.89725 17.0287 5.89723 17.2156 5.9528 17.3894C6.00836 17.5633 6.11674 17.7155 6.26285 17.8249C6.40896 17.9343 6.58554 17.9954 6.76801 17.9998C6.95048 18.0041 7.12977 17.9515 7.28093 17.8492L14.4667 11.3779C14.6027 11.2862 14.7104 11.1582 14.7773 11.0084C14.8443 10.8586 14.868 10.6931 14.8456 10.5306C14.8233 10.368 14.7559 10.215 14.651 10.0889C14.5461 9.9627 14.408 9.86853 14.2522 9.8169Z" fill="#FF3180"/>
</svg>
