<svg width="20" height="20" viewBox="0 0 20 20" fill="none" xmlns="http://www.w3.org/2000/svg">
<path d="M10.0004 16C12.2097 16 14 14.2089 14 12.0003C14 9.79114 12.2097 8 10.0004 8C7.79098 8 6 9.79114 6 12.0003C6 14.2096 7.79098 16 10.0004 16Z" fill="url(#paint0_linear_377_1027)"/>
<path d="M2.09095 7.55871L4.09969 9.85512C4.2577 10.0286 4.52904 10.05 4.70971 9.89913C7.98317 7.08221 12.0247 7.08221 15.2754 9.89913C15.4561 10.05 15.7268 10.0286 15.8855 9.85512L17.8949 7.55871C17.97 7.47506 18.0073 7.36698 17.9988 7.25767C17.9903 7.14836 17.9367 7.04654 17.8495 6.97408C13.108 3.00864 6.85446 3.00864 2.11295 6.97408C2.04374 7.05662 2.00429 7.15784 2.00033 7.263C1.99637 7.36815 2.02812 7.47175 2.09095 7.55871Z" fill="#2684FF"/>
<defs>
<linearGradient id="paint0_linear_377_1027" x1="10.0004" y1="14.6297" x2="10.0004" y2="7.53229" gradientUnits="userSpaceOnUse">
<stop stop-color="#2684FF"/>
<stop offset="0.824" stop-color="#0052CC"/>
</linearGradient>
</defs>
</svg>
