<svg width="20" height="20" viewBox="0 0 20 20" fill="none" xmlns="http://www.w3.org/2000/svg">
<path d="M4.3074 5.13775C4.47944 5.17823 4.78305 5.25919 5.20809 5.35027C6.45288 5.63364 7.13093 5.93724 7.41429 6.51409V8.06248C7.08033 8.82149 6.19987 9.29714 4.95509 9.29714C3.79127 9.29714 2.97154 9.00365 2 8.14344L2.9007 7.14154C3.34598 7.50587 3.70019 7.73863 4.00379 7.86007C4.31752 7.99164 4.65148 8.06248 4.99557 8.05236C5.47122 8.05236 5.83554 7.92079 5.98735 7.67791V7.14154C5.87603 6.97962 5.67362 6.88854 5.45098 6.8177C5.27894 6.78734 4.98545 6.71649 4.55028 6.61529C3.33586 6.35217 2.72865 6.05868 2.46553 5.54255V4.00429C2.79949 3.29588 3.63947 2.79999 4.85389 2.79999C5.90639 2.79999 6.63504 3.05299 7.48513 3.7614L6.64516 4.77342C5.92663 4.20669 5.47122 4.05489 4.81341 4.05489C4.33776 4.05489 3.99367 4.19657 3.85199 4.41922V4.88474C3.93295 4.99607 4.09488 5.07703 4.3074 5.13775Z" fill="#000099"/>
<path d="M17.6154 9.11496V3.00238H16.0569V6.68612C16.0569 7.50586 15.5812 7.95114 14.802 7.95114C14.134 7.95114 13.79 7.5767 13.79 6.93913V3.00238H12.2314V7.35405C12.2314 8.54823 12.95 9.29713 14.3972 9.29713C15.2675 9.29713 15.8646 8.99352 16.1884 8.46727V9.11496H17.6154Z" fill="#000099"/>
<path fill-rule="evenodd" clip-rule="evenodd" d="M15.0545 10.6836C13.6478 10.6836 12.5447 11.4426 12.0893 12.657V15.2275C12.5346 16.442 13.6478 17.201 15.0545 17.201C16.4612 17.201 17.5542 16.442 17.9995 15.2377V12.6469C17.5441 11.4426 16.441 10.6836 15.0545 10.6836ZM10.966 12.738V17.0087H9.40747V13.2035C9.40747 12.4749 9.11398 12.0296 8.43593 12.0296C7.75788 12.0296 7.36319 12.5356 7.36319 13.244V17.0087H5.80469V13.2035C5.80469 12.4243 5.48084 12.0296 4.83315 12.0296C4.14498 12.0296 3.76041 12.5356 3.76041 13.244V17.0087H2.2019V10.8961H3.64909V11.5742C4.00329 10.9872 4.59026 10.6937 5.38976 10.6937C6.16901 10.6937 6.75598 11.0176 7.08995 11.5944C7.50487 10.9973 8.1222 10.6937 8.9217 10.6937C10.2272 10.6937 10.966 11.473 10.966 12.738ZM16.4912 14.843C16.2483 15.4907 15.7321 15.8752 15.044 15.8752C14.3659 15.8752 13.8296 15.4907 13.5867 14.843V13.0416C13.8296 12.3939 14.3457 11.9992 15.044 11.9992C15.7321 11.9992 16.2382 12.3939 16.481 13.0416L16.4912 14.843Z" fill="#000099"/>
</svg>
