<svg width="20" height="20" viewBox="0 0 20 20" fill="none" xmlns="http://www.w3.org/2000/svg">
<path d="M3.60352 15.0732L7.21113 14.1501L8.62828 14.9821L9.58371 13.5033L13.2888 12.6107L15.7155 14.52L12.1536 15.7661L11.4325 17.2008L9.79932 16.0914L6.28694 17.1086L3.60352 15.0732ZM13.7342 2.9783L16.2793 4.21906V14.2857L13.7342 12.3181" fill="#00AA66"/>
<path d="M16.336 15.0156C16.2521 15.0155 16.1704 14.9883 16.1033 14.9379L13.2663 12.8084C13.1841 12.7466 13.1298 12.6548 13.1153 12.553C13.1009 12.4513 13.1274 12.3479 13.1892 12.2657C13.2509 12.1835 13.3427 12.1292 13.4445 12.1148C13.5463 12.1003 13.6496 12.1268 13.7318 12.1886L15.9482 13.8526V4.71048L13.2663 2.69752C13.1841 2.63579 13.1297 2.54392 13.1152 2.44211C13.1007 2.34031 13.1272 2.23691 13.189 2.15467C13.2507 2.07243 13.3426 2.01807 13.4444 2.00357C13.5462 1.98907 13.6496 2.0156 13.7318 2.07733L16.5684 4.20686C16.6659 4.28038 16.7234 4.39505 16.7234 4.51695V14.6278C16.7234 14.7306 16.6826 14.8292 16.61 14.9019C16.5374 14.9746 16.4388 15.0155 16.336 15.0156ZM11.4636 17.7585C11.3799 17.7584 11.2984 17.7313 11.2313 17.6811L8.39431 15.5516C8.35358 15.5211 8.31928 15.4828 8.29334 15.439C8.26741 15.3952 8.25035 15.3467 8.24315 15.2963C8.23595 15.246 8.23875 15.1946 8.25138 15.1453C8.26402 15.096 8.28624 15.0497 8.31678 15.009C8.34732 14.9682 8.38559 14.9339 8.42939 14.908C8.47319 14.8821 8.52167 14.865 8.57206 14.8578C8.62245 14.8506 8.67377 14.8534 8.72308 14.866C8.77239 14.8787 8.81873 14.9009 8.85945 14.9314L11.3356 16.7905L11.9109 15.7177L9.33983 13.7878C9.26155 13.7247 9.21084 13.6337 9.1984 13.5339C9.18596 13.4341 9.21276 13.3334 9.27315 13.253C9.33353 13.1726 9.42278 13.1188 9.52207 13.1029C9.62136 13.0871 9.72293 13.1104 9.80535 13.168L12.6419 15.2975C12.7951 15.413 12.8415 15.6221 12.7509 15.7909L11.8054 17.5539C11.7723 17.6158 11.723 17.6675 11.6628 17.7035C11.6026 17.7396 11.5338 17.7585 11.4636 17.7585Z" fill="#18252D"/>
<path d="M6.22476 17.6091C6.14172 17.6091 6.05981 17.5825 5.99238 17.5318L3.15505 15.4019C3.07281 15.3402 3.01844 15.2484 3.0039 15.1466C2.98936 15.0449 3.01584 14.9415 3.07753 14.8592C3.13921 14.777 3.23103 14.7226 3.3328 14.7081C3.43457 14.6936 3.53795 14.72 3.62019 14.7817L6.30857 16.8L9.69333 15.9391C9.74264 15.9265 9.79392 15.9238 9.84427 15.9311C9.89461 15.9384 9.94303 15.9555 9.98675 15.9815C10.0305 16.0075 10.0687 16.0419 10.0991 16.0826C10.1295 16.1234 10.1517 16.1698 10.1642 16.2191C10.1767 16.2684 10.1794 16.3196 10.1721 16.37C10.1648 16.4203 10.1477 16.4687 10.1217 16.5125C10.0957 16.5562 10.0614 16.5944 10.0206 16.6248C9.97984 16.6553 9.93349 16.6774 9.88419 16.6899L6.32 17.5966C6.28889 17.6046 6.2569 17.6091 6.22476 17.6091ZM12.4072 15.9951C12.3126 15.995 12.2213 15.9604 12.1505 15.8977C12.0797 15.835 12.0342 15.7485 12.0227 15.6546C12.0113 15.5607 12.0345 15.4659 12.0882 15.388C12.1418 15.31 12.2221 15.2544 12.3139 15.2316L16.2419 14.2522C16.2913 14.2399 16.3426 14.2374 16.3929 14.245C16.4433 14.2525 16.4916 14.2698 16.5352 14.2961C16.5788 14.3223 16.6169 14.3568 16.6471 14.3977C16.6774 14.4386 16.6993 14.4851 16.7116 14.5345C16.7239 14.5839 16.7264 14.6352 16.7189 14.6855C16.7113 14.7358 16.694 14.7842 16.6678 14.8278C16.6415 14.8714 16.607 14.9094 16.5661 14.9397C16.5252 14.97 16.4787 14.9919 16.4293 15.0042L12.5017 15.9836C12.4697 15.9912 12.4385 15.9951 12.4072 15.9951Z" fill="#18252D"/>
<path d="M3.3291 4.95466L13.3424 2.65637L13.5062 12.3417L9.56682 13.3265L8.41786 14.968L7.10472 13.9832L3.6571 14.6396L3.3291 4.95466Z" fill="white"/>
<path d="M8.47962 15.5153C8.392 15.5153 8.30591 15.4856 8.23695 15.43L7.07733 14.499L3.48114 15.3957C3.42402 15.41 3.36439 15.4111 3.30679 15.3989C3.24918 15.3867 3.19512 15.3615 3.14872 15.3253C3.10232 15.289 3.06481 15.2426 3.03904 15.1897C3.01327 15.1367 2.99991 15.0786 3 15.0197V4.90848C3 4.73058 3.12114 4.57553 3.29371 4.53248L13.405 2.01172C13.4621 1.99733 13.5217 1.99617 13.5794 2.00835C13.637 2.02053 13.6911 2.04572 13.7375 2.082C13.7839 2.11827 13.8215 2.16467 13.8472 2.21766C13.873 2.27064 13.8863 2.32881 13.8861 2.38772V12.4986C13.8861 12.6765 13.765 12.8315 13.5924 12.8746L9.81067 13.8174L8.80267 15.3412C8.76745 15.3947 8.7195 15.4387 8.66311 15.4691C8.60673 15.4994 8.54367 15.5153 8.47962 15.5153ZM7.16991 13.6887C7.25752 13.6887 7.34324 13.7184 7.41257 13.7744L8.39048 14.5595L9.24762 13.2643C9.30095 13.1831 9.38286 13.1252 9.47695 13.102L13.1112 12.1957V2.88372L3.77486 5.21134V14.5237L7.07581 13.7009C7.10705 13.6932 7.13829 13.6894 7.16991 13.6894V13.6887Z" fill="#18252D"/>
<path d="M9.45771 10.3543C9.02152 10.8876 8.57504 11.1771 8.13123 11.2164C7.82651 11.2413 7.5235 11.1513 7.28171 10.9642C7.19892 10.8959 7.09287 10.8625 6.98592 10.871C6.87898 10.8795 6.7795 10.9291 6.70848 11.0096C6.63746 11.09 6.60046 11.1948 6.60527 11.302C6.61008 11.4092 6.65634 11.5103 6.73428 11.584C6.75714 11.6042 7.26456 12.0488 8.02876 12.0488C8.07942 12.0488 8.13085 12.0465 8.18342 12.0423C8.86456 11.9889 9.50875 11.5977 10.0973 10.8788C10.1626 10.7936 10.1922 10.6863 10.1798 10.5797C10.1674 10.4731 10.1141 10.3754 10.0311 10.3074C9.94805 10.2393 9.84181 10.2062 9.73482 10.215C9.62784 10.2239 9.52847 10.2735 9.45771 10.3543ZM6.4539 8.01675C6.48211 7.98869 6.51783 7.96937 6.55676 7.96113L6.96895 7.87351L8.03371 6.90209V6.57294L8.6299 6.41637V7.6438C8.6299 7.67351 8.6318 7.79428 8.65961 7.95047L9.42723 7.18856C9.45534 7.16056 9.49091 7.14125 9.52971 7.13294L9.9419 7.04532L11.0558 6.02894V5.51466L11.055 5.50209C11.0543 5.4778 11.051 5.45367 11.0451 5.43009L11.0448 5.42704L11.0429 5.42171C11.0373 5.40153 11.0299 5.38189 11.0208 5.36304L11.0185 5.35923C11.0099 5.34244 11 5.32639 10.9888 5.31123L10.9819 5.30171C10.9675 5.28361 10.9513 5.26702 10.9335 5.25218L10.9221 5.24266C10.911 5.23407 10.8995 5.22619 10.8874 5.21904L10.8817 5.21599C10.8658 5.20707 10.8493 5.19943 10.8322 5.19313L10.823 5.18932C10.7828 5.17582 10.7405 5.16988 10.6981 5.1718L10.6878 5.17256C10.6668 5.17398 10.6461 5.17729 10.6257 5.18247L5.86342 6.43428C5.79013 6.45347 5.72526 6.4964 5.67894 6.55636C5.63263 6.61632 5.60748 6.68994 5.60742 6.76571V8.43809C5.60742 8.47237 5.61009 8.62475 5.65085 8.81447L6.4539 8.01713V8.01675ZM11.0558 6.58704L10.1781 7.3878C10.1511 7.41257 10.1179 7.42966 10.0821 7.43732L9.67447 7.5238L8.80056 8.39123C8.86723 8.52456 8.95904 8.65332 9.0878 8.75237C9.24971 8.87732 9.53123 9.00266 9.95256 8.89218C10.4379 8.76456 10.7834 8.41142 10.9514 7.87123C11.0233 7.63716 11.0585 7.39339 11.0558 7.14856V6.58666V6.58704Z" fill="#18252D"/>
<path d="M8.03466 7.46057L7.20609 8.216C7.17908 8.24076 7.14593 8.25786 7.11009 8.26552L6.70247 8.352L5.80762 9.24038C5.87162 9.35429 5.95581 9.46133 6.06666 9.54667C6.18476 9.6381 6.36609 9.72952 6.61905 9.72952C6.71314 9.72952 6.81714 9.71657 6.93143 9.68648C7.41714 9.55886 7.76228 9.2061 7.93028 8.66552C8.00211 8.43145 8.03732 8.18769 8.03466 7.94286V7.46057Z" fill="#18252D"/>
</svg>
